<?xml version="1.0" encoding="utf-8"?>
<!-- Generator: Adobe Illustrator 27.5.0, SVG Export Plug-In . SVG Version: 6.00 Build 0)  -->
<svg version="1.1" xmlns="http://www.w3.org/2000/svg" xmlns:xlink="http://www.w3.org/1999/xlink" x="0px" y="0px"
	 viewBox="0 0 512 512" style="enable-background:new 0 0 512 512;" xml:space="preserve">
<style type="text/css">
	.st0{display:none;}
	.st1{display:inline;fill:#A02828;}
	.st2{display:inline;fill:#FDFDFD;}
	.st3{fill:#2869A3;}
	.st4{fill:#FDFDFD;}
	.st5{fill:none;stroke:#FDFDFD;stroke-width:10;stroke-miterlimit:10;}
</style>
<g id="Calque_2" class="st0">
	<rect x="92" y="103" class="st1" width="359" height="310"/>
	<ellipse class="st2" cx="258" cy="254.5" rx="91" ry="88.5"/>
</g>
<g id="Calque_1">
	<g>
		<path class="st3" d="M329.2,356.9c-9.4,0.3-15.3,2.4-20.1,8.1c-4.1,4.8-8,9.4-8.2,16.1c-0.1,1.7-1.5,1.5-2.7,1.5
			c-5.3-0.1-10.2-1.8-15.2-3c-13.2-3.1-26.4-6.6-39.6-9.9c-0.2-0.1-0.4-0.1-0.6-0.1c-6.3,0.7-12.2-1.3-18.2-2.7
			c-7.6-1.7-15.1-3.7-22.7-5.1c-6-1.1-11.9-2.3-17.8-3.6c-10.6-2.3-21.5-1.9-32.1-4.2c-4-0.9-8.3-1.4-12.5-1.7
			c-11.7-0.8-23.3-2.5-35-1.9c-8.8,0.4-17.6,1.4-26.3,3c-7.5,1.4-15,2.7-22.7,3.6c-5.6,0.7-11.2,2.5-16.7,4.1
			c-2.5,0.7-3.8,0.4-4.6-2.2c-2.9-9.9-7.9-19-11.4-28.8c-1.2-3.4-2.2-6.9-2.5-10.6c-0.6-6-2.3-11.9-3.6-17.8
			c-0.7-3.3-1.5-6.5-2.1-9.8c-0.2-0.8-0.4-2,0.6-2.3c1-0.4,2.1,0.3,2.9,0.9c5.6,4.1,12.4,5.3,18.8,6.8c6.5,1.5,13,3.3,19.7,3.9
			c4,0.4,7.9,1.1,11.9,1c10.5-0.1,20.9,0.5,31.3,1c8.2,0.4,16.3-0.4,24.5-0.9c4.7-0.3,9.4-0.2,14.1-0.1c12.9,0.3,25.4-2.2,38-4.3
			c6.8-1.1,13.3-3.6,20.3-3.2c1,0,1.8-1,2.9-1.2c7.8-1.7,15.5-4.1,23.4-5.3c16.4-2.4,32.3-7.2,48.7-9.4c10-1.3,19.9-2.9,30-3.7
			c5.2-0.4,10.4-0.2,15.6-0.5c17.3-1.1,34.6-1.3,51.9-0.4c9.2,0.5,18.5-0.5,27.7,1c8.4,1.4,16.8,2.4,25.1,4.2
			c5.9,1.3,11.9,2.9,17.8,4.5c5.9,1.6,11.5,3.9,17.7,4.7c6.6,0.8,12.4,4.5,18.6,6.9c2.9,1.1,5.8,2.4,8.5,4.1
			c2.6,1.6,5.4,2.7,8.6,2.8c3.6,0.1,4.8,2.1,4.2,5.7c-1.7,9.8-3.5,19.6-7.5,28.8c-2.3,5.2-4.9,10.3-6.6,15.6
			c-2.4,7.7-6.5,14.4-10.8,21.1c-1.4,2.2-2.4,4.6-3.5,7c-1.7,3.9-4.4,6.8-8.7,8.2c-11.2,3.7-22.6,5.5-34.4,6.4
			c-7.3,0.6-14.6,0.6-21.8,0.4c-11.1-0.3-22.2-1.1-33.3-2.3c-5.1-0.6-10.2-1.8-15.4-1.5c-2.7,0.1-3.6-1.6-3-3.8
			c1.5-6-1.1-11.5-2-17.2c-0.3-2.1-2.4-3.3-3.9-4.7C340.7,360.2,334.9,356.5,329.2,356.9z"/>
		<path class="st3" d="M110.7,254.4c5.9-5.5,12.3-9.9,16.6-16.5c1.5-2.4,5-2.7,6.6-5.2c3.7-6.1,9.1-7.4,15.7-5.9
			c6.3,1.5,12.8,0.7,19.2,0.9c9.7,0.2,19.4,0,29.1-0.2c3.1-0.1,6.2-0.7,9.2-1.2c1.9-0.3,3.3,0.3,4.7,1.7c8,7.9,16.1,15.7,23.9,23.7
			c2.2,2.2,3.8,2.6,5.7,0c1.7-2.2,5.9-3.8,5-6.2c-1.2-3.2-3.4-6.6-6.6-8.5c-3-1.8-5.2-4.2-7.6-6.5c-1.3-1.2-2-2.8-2.9-4.2
			c-0.9-1.4-0.3-1.8,0.9-1.9c9.1-0.4,17.8-3.4,26.9-3.2c9,0.2,17.5-2.6,26.2-3.7c5.5-0.7,11-1.7,16.5-2.4c5-0.6,9.8-2,14.8-2.6
			c5.2-0.6,10.3-1.9,15.6-2.4c8.9-1,17.7-2.5,26.8-2.4c11.1,0.2,22.1-1.7,33.3-1.8c7.7-0.1,15.3-0.6,23,0.1
			c5.6,0.5,11.3-0.1,16.9,0.7c4.8,0.7,9.6,1,14.3,1.8c1.7,0.3,3.1-0.6,4.8-0.7c4.3-0.1,8.3,1.3,12.5,1.7c5.2,0.5,10.4,1.5,15.5,2.5
			c7.6,1.5,15.1,3.1,22.7,4.7c1.4,0.3,1.5,1.9,1.6,2.9c1.2,9,2.5,17.9,2.8,27c0.2,4.4,0.7,8.9,0.5,13.3c-0.3,8.2-0.8,16.3-1.8,24.5
			c-0.5,4.2-1.6,8.4-1.5,12.8c0.1,3.9-1.5,4.6-4.8,2.7c-7.2-4.3-14.7-8.5-22.6-10.5c-9.6-2.4-18.6-6.5-28.2-8.8
			c-5.7-1.4-11.6-2.6-17.1-4.6c-0.4-0.1-0.8-0.3-1.3-0.3c-10.1,0.6-19.7-2.9-29.6-3.8c-4.2-0.4-8.3-1.1-12.5-1.3
			c-14.4-0.7-28.8-2.7-43.2-1.8c-13.1,0.9-26.1,1.3-39.2,2.8c-12,1.4-23.9,3.7-36,4.1c-8.9,0.3-17.5,3-26.2,4.9
			c-10.9,2.5-21.7,6-32.7,7.4c-9.4,1.3-18.6,3.7-28,4.8c-5.3,0.6-10.5,2.1-15.9,2.6c-7.5,0.7-15,1.8-22.4,2.5
			c-10.7,1.1-21.4,1.1-32.1,1.8c-10.8,0.7-21.5-0.6-32.3-0.8c-7.4-0.1-14.7-2.2-22.1-2.9c-6.4-0.6-12.6-2.5-19-3.4
			c-2.6-0.4-5-1.5-7.3-2.3c-4.7-1.6-9.8-1.4-14.2-4c-1.5-0.9-2.3-1.8-2.6-3.7c-1.7-11.7-1.4-23.4-1-35.1c0.2-6.4,0.9-12.9,1.9-19.3
			c1-6.3,2-12.8,4-18.9c2-6.2,2.2-12.6,3.8-18.8c1-3.6,1.7-4,4.9-1.7c7,5,15.1,7.9,22.4,12.4c6.6,4.1,14.2,6.1,21.4,8.8
			c5.2,1.9,10.6,3.7,15.7,5.8c5.3,2.2,10.8,3.6,16.2,4.8c4.9,1.1,10.2,1.1,15.2,2.2c1,0.2,2.1,0.4,3.1,0.7c0.8,0.3,1.9-0.4,2.3,0.6
			c0.4,1.1-0.7,1.8-1.3,2.4c-6,5.9-11.9,11.8-17.9,17.6c-1.5,1.5-0.8,2,0.5,2.9C106.2,249,109.7,250.3,110.7,254.4z M314.9,229.5
			c-0.3-2-1-3.8-3.8-4c-3.1-0.2-3.7,2.4-3.8,4.2c-0.1,1.6,0.5,4.2,3.3,4.3C312.9,234.2,314.8,232.3,314.9,229.5z M62.1,257.5
			c0-2.7-1.5-4.8-3.5-4.5c-1.8,0.3-3.8,1-3.8,3.6c0,2.4,1.8,5.1,3.6,4.9C60.7,261.3,62.2,260,62.1,257.5z M296.1,230.7
			c-2.9,0.1-4.8,1.2-4.7,3.8c0.1,2.1,1.9,3.4,4.1,3.4c2.1,0,4.2-1.6,4-3.3C299.3,233.3,299,229.7,296.1,230.7z M366.7,253.7
			c2-0.3,4.1-1.3,4-3.3c-0.1-2.1-1.5-3.9-4.2-4c-2.7-0.1-3.7,2.1-3.6,3.7C362.9,251.8,364.1,253.9,366.7,253.7z M152.1,261.5
			c-2.5,0-4.4,0.2-4.3,2.8c0.1,2.1,1.1,4.1,3.5,4.3c2,0.2,4.7-2.7,4.4-4.7C155.4,261.4,153.4,261.6,152.1,261.5z"/>
		<path class="st3" d="M176.3,223c-6.4,0.5-14.1-0.4-21.9-0.2c-2.4,0.1-4.9-0.4-7.4-0.5c-0.7,0-1.3-0.4-1.6-1c-0.4-0.9,0.6-1,1-1.4
			c2.5-2.2,4.7-4.5,6.5-7.3c1.2-1.9,2.7-4,4.9-4.5c3.1-0.8,2.6-1.8,0.8-3.5c-2.2-2.2-4.7-4.2-6.5-6.8c-1.2-1.8-2.2-0.6-3.2,0.3
			c-4.8,4.8-9.5,9.6-14.3,14.3c-1.2,1.2-2.6,2.1-3.5,3.4c-3.3,5.3-7.9,4.6-13,3.6c-13.2-2.6-25.9-7.1-38.8-10.7
			c-9.1-2.5-17.4-6.4-25.6-10.6c-4.8-2.4-9.9-4.1-14.7-6.5c-4.6-2.2-7.9-6.3-12.7-8.1c-1.1-0.4-1.2-1.6-0.6-2.8
			c2.3-4.7,3.7-9.8,6.4-14.4c1.9-3.2,1.4-7.6,3.9-10.8c3.5-4.4,5-10,8.7-14.3c1.5-1.8,1.9-4.5,3.2-6.6c4-6.7,9.3-12.4,13.2-19.3
			c2.2-3.9,7.4-6.3,9.8-10.5c2.7-4.7,7.2-7.4,10.5-11.4c1.2-1.5,3.2-2.3,5.5-2.2c5.6,0.2,11.2-0.3,16.7,0.2c8.9,0.8,17.8,1,26.7,2.4
			c10.1,1.6,20.1,3.2,30,6c1.6,0.5,3.5,0.2,5.2,0.1c2.2-0.1,3.3,0.8,3.2,3c-0.4,11,0.5,22-0.5,33c-0.4,4.5-0.3,4.5,4.3,4.4
			c0.4,0,0.9,0,1.3,0c8-0.1,8.1-0.1,8.1-8.2c0-8.1,0-16.1-0.1-24.2c0-2.3,0.2-3.2,2.8-2.2c5.9,2.1,11.7,4.7,17.8,6.2
			c6.5,1.6,13,3.2,19.2,6.2c3.2,1.6,3.4,1.5,0.8,4.2c-6.1,6.1-12.1,12.4-18.4,18.3c-3.3,3.1-7,5.9-10,9.3c-4,4.6-3.9,3.9,0,8.2
			c1.3,1.4,2.8,2.7,4.1,4.2c1.4,1.6,2.8,1.4,3.7-0.2c4.1-7.3,12.5-10.5,16.7-17.8c1.9-3.4,6.2-4.5,8.8-7.6c3.2-3.8,5.8-8,10.4-10.5
			c1.5-0.8,3.3-1.4,4.2-0.7c3.7,2.7,8.3,1.9,12.2,3.6c5.8,2.5,12,4,18,6c8.9,2.9,17.8,5.8,27.3,6.6c5.3,0.4,10.5,2.6,15.9,3.1
			c5.3,0.5,10.6,1.5,15.8,2.4c7.7,1.3,15.6,1.3,23.3,2.2c6.9,0.8,14.1,0.8,21.1-0.2c3-0.4,6-0.5,9-0.7c6.9-0.3,13.6-2,20.3-2.7
			c8.1-0.9,15.7-4.2,23.9-4.9c4.5-0.4,9-2.1,13.2-3.8c5.7-2.2,11.2-4.8,16.6-7.4c5.6-2.7,7.7-2.2,9.5,3.9c1.1,3.8,3.3,6.9,5.5,10
			c2.9,4.2,4.4,9.1,7.6,13.1c1.3,1.6,0.4,3.5,1.2,5.3c3.3,7.1,6.2,14.4,9.4,21.5c2.3,5.3,3.2,10.9,3.9,16.5c0.4,3.1,1.2,6.1,2.3,9
			c0.4,0.9,0.7,2,0.1,2.8c-0.6,0.8-1.6,0-2.4-0.1c-8.3-1.3-16.4-2.9-24.8-3.7c-6.8-0.6-13.7-1.8-20.5-3.3c-3.8-0.8-7.7-1.1-11.5-1.5
			c-13.2-1.4-26.5-2.2-39.9-2.2c-13.4,0-26.8,0.8-40.1,2.6c-6.4,0.9-12.9,0.9-19.3,1.9c-9,1.5-18.1,2.8-27.1,3.2
			c-8.5,0.5-16.8,2.3-25.2,3.5c-9.2,1.3-18.3,3.4-27.5,4.9c-7.1,1.2-14.3,1.9-21.5,2.9c-3.5,0.5-7.1,0.7-10.6,1.4
			c-5,0.9-7.7-2.1-9.9-5.7c-2-3.2-4.4-5.8-7.6-7.7c-3.1-1.8-5.1-4.6-7-7.5c-3-4.3-4-4.4-7.7-0.8c-8,7.6-5.6,7-0.1,12.3
			c2.6,2.6,5.2,5.3,7.9,7.9c1.5,1.4,1.1,2.1-0.6,2.6c-1.5,0.5-3,0.9-4.7,0.9C191.1,222.9,184.4,223,176.3,223z M338.6,184.3
			c40.1,0,80.3,0,120.4,0c4.6,0,4.6,0,3.9-4.8c-0.1-0.7,0-1.5,0-2.3c0-1.8,0.6-4.2-0.3-5.4c-1.2-1.4-3.7-0.6-5.6-0.6
			c-76.9,0-153.8,0-230.7,0c-2.7,0-5.5,0.2-8.2-0.1c-3-0.2-4.3,0.6-4.1,3.9c0.1,1.8,0.8,3.7,0.3,5.6c-0.7,2.5,0,3.6,2.9,3.6
			C257.6,184.3,298.1,184.3,338.6,184.3z M113.3,105.7c-0.4,0.1-1.1,0-1.2,0.3c-2,3.1-4.8,5.4-7.7,7.7c-0.6,0.5-0.1,1,0.3,1.4
			c3.9,3.2,6.6,8,10.4,10.7c7.4,5.2,11.6,13.4,19,18.3c3.3,2.2,4.7,6.3,7.7,8.6c3.6,2.6,6.7,5.7,9.7,8.9c0.8,0.9,1,1.5,2.1,0.4
			c2.3-2.4,4.7-4.6,6.9-7c0.5-0.5,1.4-1.4,0.4-2.4c-3.5-3.5-6.5-7.9-10.2-10.8c-6.3-4.9-10.5-11.5-16.8-16.3
			c-2.1-1.6-4.1-3.4-5.9-5.4c-1.9-2.2-2.4-5.5-5.2-6.8c-3.2-1.5-5.8-3.7-8-6.4C114.3,106.3,114.1,105.6,113.3,105.7z M103.1,171.3
			c-8.7,0-17.5,0-26.2,0c-4.2,0-4.5,0.3-4.4,4.3c0,1.9,0.1,3.7-0.1,5.6c-0.2,2.4,0.7,3.2,3.1,3.2c15.7-0.1,31.4-0.1,47.1,0
			c4.6,0,9.3-0.5,14,0.5c1.6,0.4,3.6,0,3.6-2.5c0-2.8-0.1-5.7,0-8.5c0-1.4-0.5-1.9-1.9-1.9c-4.6-0.1-9.1-0.5-13.7-0.5
			C117.5,171.3,110.3,171.3,103.1,171.3z M158.2,190.1c2.9,0,5.3-1.8,5.3-4c0-2.5-2.1-4.4-4.9-4.4c-2.9,0-4.7,1.5-4.7,4.1
			C153.7,188.4,155.4,190.1,158.2,190.1z M402.8,159.3c0,3.5,1.2,5.3,3.4,5.2c2-0.1,4.3-2.7,4.3-4.8c0-2.2-2.4-4.3-4.8-4.3
			C403,155.5,402.5,157.1,402.8,159.3z M86.3,146.4c0.4-2.3-0.2-4.2-3-4.5c-1.6-0.2-5,3.1-4.7,4.6c0.5,2.2,1.6,4.2,4.4,4.4
			C86,151,86.5,149.1,86.3,146.4z M150.6,107.9c0,2.9,1.4,4.9,3.1,5c2.3,0.1,4.7-2.4,4.7-4.8c0-2.1-2.6-4.4-4.8-4.3
			C150.6,104,151.1,106.5,150.6,107.9z M170.7,197.4c1.8,0.2,3.5-1.6,3.6-3.7c0.1-2.4-1.9-3.6-4.5-3.5c-2.4,0.1-4.7,0.8-4.7,3.6
			C165.1,196.5,167.4,197.2,170.7,197.4z M427.8,151.4c-1.9,0.8-4.2,1-4.2,4c-0.1,2.8,1.8,3.7,3.9,3.8c2.1,0.1,3.6-1.7,3.8-3.6
			C431.5,153.5,430.2,151.9,427.8,151.4z M229.6,154.1c0.9,1.4,0.1,3.8,2.9,3.9c2.2,0.1,4.9-1.8,5-3.7c0.1-1.6-2.5-4.1-4.4-4.1
			C230.8,150.4,230.3,152.3,229.6,154.1z"/>
		<path class="st3" d="M87.4,87.8c2.8-2.5,6-4.7,8.3-7.7c4.1-5.2,10-8.1,14.7-12.5c2.7-2.5,5.2-5.5,8.4-7
			c6.6-3.1,11.8-8.3,18.3-11.4c7.5-3.7,15.2-7.3,22.7-11.1c2.7-1.4,5.8-2.2,7.7-4.7c0.4-0.6,1-0.5,1.4-0.4
			c6.4,1.1,11.7-2.3,17.3-4.3c8-2.8,16.3-4.7,24.5-7c7.8-2.2,15.6-1.7,23.5-2c5.7-0.2,11.4-1,17.1-1.3c6.7-0.4,13.3-0.2,19.9,0.3
			c8.3,0.7,16.6,0.7,24.9,1.3c7.6,0.6,15.1,2.7,22.4,4.9c7.5,2.3,14.9,5.1,22.5,7c6.5,1.7,12.4,4.4,18.5,6.8
			c3.7,1.4,6.7,4.1,10.3,5.7c0.4,0.2,0.4,0.8,1.1,0.9c8.1,1.8,14.3,7,20.8,11.6c0.7,0.5,1.4,1.1,2.2,1.3c5,1.2,8.9,4.5,12.2,7.9
			c3.6,3.7,8,6.2,11.7,9.6c11.1,9.9,21.8,20.2,30.7,32.1c0.3,0.4,0.7,0.8,1.1,1.2c5.3,3.8,6.9,10.2,10.7,15.1c1,1.3,0.5,2.3-1,2.5
			c-9.5,1.7-17.8,6.8-27,9.5c-7.8,2.3-15.4,5-23.7,5.1c-3.8,0.1-7.6,1.2-11.3,2c-6.1,1.3-12.2,1.5-18.3,1.9
			c-9.2,0.6-18.6,0.9-27.8,0.4c-11.4-0.7-22.9-1.4-34.1-4.3c-0.6-0.2-1.3-0.3-1.9-0.2c-8,0.8-15.5-1.6-23.1-3.5
			c-10-2.5-19.7-5.9-29.6-8.8c-5.8-1.7-11.8-2.6-17.3-5.2c-2.4-1.2-2.9-2.1-1.4-4.3c1.9-2.8,4.1-5.2,7.1-6.9
			c2.1-1.2,3.8-2.8,5.1-4.9c2.1-3.4,4.8-6,8.2-8.1c3.1-1.9,5.5-4.7,7.5-7.7c1.4-2.2,3-4.1,5.5-5.3c3.6-1.8,5.9-5,8.1-8.2
			c1.4-2.1,3.2-3.8,5.4-5c2.9-1.6,5.3-4.1,6.8-6.9c2.1-4,5.5-6.2,9-8.6c4-2.8,4.1-3.2,0.8-6.9c-0.3-0.3-0.6-0.7-0.9-1
			c-6.6-5.7-5.9-5.6-11.5,0.2c-6.9,7.2-14.3,13.9-21.4,20.9c-12.4,12.3-24.6,24.6-37,36.9c-2.2,2.2-4.4,4.3-6.5,6.5
			c-1.9,2-3.9,2.4-6.4,1.2c-4-2.1-8.6-1.9-12.7-3.4c-6.4-2.4-12.7-5.1-19.1-7.5c-2.1-0.8-4.2-1.5-6.4-2.1c-2.7-0.7-3.8-2.2-3.7-5.1
			c0.2-7.7,0-15.5,0.2-23.2c0-2.2-0.7-2.8-2.8-2.7c-2.6,0.1-5.2,0.1-7.9-0.1c-2-0.1-2.6,0.6-2.6,2.7c0.1,6.9,0.1,13.7,0.1,20.6
			c0,3.4-0.4,3.7-3.5,2.6c-5.6-2-11.5-3.5-17.3-4.4c-7.8-1.3-15.6-2.9-23.6-3.6c-10.5-0.8-21-1.3-31.5-1.4
			C91.2,87.8,89.5,87.8,87.4,87.8z M328.5,73.6c2.1-0.5,4.6-0.6,4.6-3.8c0-2.9-1.6-4.6-4.5-4.7c-2.7,0-3.9,1.5-3.9,4
			C324.7,71.8,326,73.2,328.5,73.6z M214.3,65.4c-0.1-2.7-1-4.4-4.1-4.2c-2.8,0.2-4.6,1.4-4.5,3.8c0.1,2.6,1.8,3.9,4,4.5
			C211.3,70,214.3,67.1,214.3,65.4z M392.1,118.6c0-2.2-2.1-5.1-3.8-4.9c-2.6,0.3-3.5,2.7-3.8,4.6c-0.3,2.1,1.4,3.8,3.5,4.3
			C390,123.1,392.1,120.8,392.1,118.6z M371.6,116.5c2.6,0,4.9-1.9,4.7-3.9c-0.2-2.3-1.5-3.5-3.8-3.5c-2.2,0-4.2,0.8-4.4,3.2
			C368,114.5,369.4,116,371.6,116.5z M254.6,46.1c-0.1-3.1-2.2-3.2-4.5-3.2c-2.3,0-3.9,1.4-3.8,3.4c0.1,2,1.8,3.8,4.1,3.7
			C252.7,49.8,254.7,49,254.6,46.1z M294.1,111c-2.4-0.2-4.1,0.7-4.7,3c-0.3,1.4,2.7,4.3,4.2,4c2-0.5,4.4-0.8,4.2-3.8
			C297.7,111.7,296.4,110.7,294.1,111z M348.5,86.6c2.5,0.8,3.4-1.1,3.3-2.9c-0.2-1.9,0.1-5.1-3.4-4.7c-2.7,0.3-3.2,2.4-3.4,4.7
			C344.8,86.3,346.2,86.9,348.5,86.6z M285.4,101.2c0.2-2-0.2-3.4-2.7-3.4c-2.5,0-4.2,1-4.3,3.3c-0.1,2.1,1.7,3.5,3.7,3.7
			C284.7,105.3,285.2,103.3,285.4,101.2z M405.8,97.9c-2-0.4-3.1,1.2-3,3.2c0.1,1.7,0.7,3.9,3,3.8c2-0.1,4-0.8,4-3.6
			C409.9,98.7,408.5,97.9,405.8,97.9z M325.3,91.3c2.3,0,3.9-1.2,3.8-3.4c0-1.9-1.4-3-3.4-3.1c-2.1-0.1-3.9,0.9-4,2.8
			C321.6,89.5,322.8,91.2,325.3,91.3z"/>
		<path d="M133.1,356c6.6,0.3,13.2,1.8,19.8,2.3c7.3,0.6,14.4,2.7,21.7,3.6c6.2,0.7,12.1,2.8,18.3,3.9c7.8,1.4,15.5,3.5,23.5,4
			c6.2,0.3,12.3,2.6,18.5,4c11.6,2.7,23.1,6.3,34.8,8c9.2,1.3,18.2,3.6,27.3,4.9c2.8,0.4,4.3,1.7,4.2,5.1c-0.3,11.2-0.2,22.5,0,33.7
			c0,2.6-1,3.8-3.3,4.1c-2.3,0.3-4.6,0.7-6.9,1.3c-1.8,0.5-2.2-0.7-2.2-2.3c0-5.3,0-10.7,0-16c0-5.7-1.6-10.9-4.5-15.7
			c-1.6-2.7-5.2-3.3-8-4.3c-4.5-1.6-9.2-1.7-14-0.3c-7.7,2.4-12.7,10.6-12.6,16.8c0.2,8.2,0,16.4,0.2,24.5c0.1,2.8-1.1,4-3.5,4.5
			c-12.8,3-25.6,5.9-38.4,9c-7.4,1.8-15,2-22.6,2.4c-6,0.3-12,0.8-17.9,1.7c-2.7,0.4-5.4,0-8.2,0c0,0,0-0.2,0-0.2l0,0.2
			c-0.9,0-1.7,0-2.6,0c0,0,0-0.2,0-0.2l0,0.2c-0.9,0-1.7,0-2.6,0c0-0.3,0-0.3-0.1,0c-11.4,0.1-22.8-0.6-34.2-0.7
			c-4.3,0-8.6-0.2-12.9-0.5c-3.6-0.3-6-2.7-7.7-5.3c-2.1-3.3-5.1-5.4-8-7.4c-2.2-1.6-4.2-3-5.8-5.3c-1.8-2.6-3.9-5.1-6.8-6.9
			c-4.1-2.5-5.9-6.9-8.8-10.5c-0.5-0.6-0.9-1.2-1.5-1.7c-3.7-3.8-7.6-7.2-9.5-12.5c-1.3-3.7-5.2-5.8-7.4-9.2
			c-3.7-5.7-6.4-11.8-9.7-17.6c-1.2-2.1-2.3-4.1-4.6-6.1c9.8-1.8,18.5-5.4,27.8-7.1c6.8-1.3,13.5-2.9,20.4-3.9
			c5.4-0.8,10.9-0.3,16.3-0.4c10-0.2,20.1,0,30.1,0c-0.4,0.8,0.1,1,0.7,0.9C133.2,356.8,133.4,356.5,133.1,356z"/>
		<path d="M280.7,503c-11.5,0.7-24.1,2.2-36.6,1.3c-14.2-1.1-28.4-0.9-42.4-4.8c-9.5-2.6-18.6-6.4-28.1-8.8
			c-8.7-2.3-16.5-6.3-24-10.9c-1.1-0.7-2.3-1.2-3.5-1.5c-7.8-2.2-14-6.9-20.2-11.7c-3.3-2.6-7.6-3.1-10.7-5.9
			c-1.4-1.3-2.9-2.6-4.2-4c-0.3-0.3-0.4-1.1-0.2-1.5c0.3-0.6,0.8-0.2,1.3,0c0.7,0.3,1.5,0.3,2.2,0.2c11.6-0.5,23.3,0.2,34.9,0.9
			c9.7,0.6,19.1-0.7,28.6-1.1c9.5-0.4,19-1.9,28.3-4.1c3.9-0.9,8.1-1.9,12.3-1.7c5.6,0.3,10.7-2.3,16-3.6
			c10.6-2.7,21.2-5.8,31.8-8.6c3-0.8,6.1-0.9,9.3-0.9c8.4,0,16.6-2.1,24.9-2.5c11.1-0.5,22.3-1.9,33.4,0.4c2.2,0.5,4.6,0.3,6.8,0.1
			c2.8-0.2,5.5,0.2,8,0.8c4.9,1.3,9.8,1.1,14.8,1.2c3.6,0,6.9,1.1,10.3,2c9.7,2.5,19,6,28,10.4c2.9,1.4,3.1,2.4,0.2,4.3
			c-6,4-11.2,9.2-17.9,12.3c-5.5,2.5-9.4,7.6-15.2,9.8c-10.9,4.2-20.2,11.7-31.6,14.5c-9.4,2.3-17.9,6.9-27.4,8.9
			C300.5,500.4,291.4,503.7,280.7,503z"/>
		<path d="M457.9,394c-4.4,6.5-8.3,12.5-13.9,17.5c-2.7,2.4-3.8,7.1-7.2,9.2c-5.1,3.2-7.5,8.6-11.7,12.5c-1.2,1.1-2.3,2.4-3.8,2.9
			c-3.9,1.4-5.3,5.2-8.1,7.7c-2,1.8-3.9,2.2-6,0.9c-5-3.2-10.6-5.1-16.1-7.3c-1.8-0.7-3.6-1.3-5.6-1.1c-3.7,0.4-7.1-1.1-10.6-1.8
			c-6.3-1.4-12.7-2.7-19.1-3.4c-3-0.3-3-1.6-3-3.6c0-8.5,0-17,0.1-25.5c0-1.9-0.6-4.4,0.3-5.7c1.2-1.7,3.6,0.1,5.4,0.2
			c8.2,0.5,16.3,1.4,24.4,2.1c8.4,0.7,16.9,1.1,25.3,1c9.3-0.2,18.6-0.4,27.9-2.3C443.1,395.9,450.3,396,457.9,394z"/>
		<path class="st3" d="M133.1,356c0.3,0.5,0.1,0.9-0.4,0.9c-0.6,0.1-1.1-0.1-0.7-0.9C132.3,356,132.7,356,133.1,356z"/>
		<path class="st3" d="M154.1,451.2C154.1,451,154.1,451,154.1,451.2C154.1,451.2,154.1,451.2,154.1,451.2z"/>
		<polygon class="st3" points="156.7,451.3 156.7,451.1 156.7,451.3 		"/>
		<polygon class="st3" points="159.3,451.3 159.4,451.1 159.4,451.3 		"/>
		<path class="st4" d="M314.9,229.5c-0.1,2.8-2,4.6-4.4,4.5c-2.8-0.1-3.4-2.7-3.3-4.3c0.1-1.8,0.7-4.4,3.8-4.2
			C313.9,225.7,314.5,227.6,314.9,229.5z"/>
		<path class="st4" d="M62.1,257.5c0,2.5-1.4,3.7-3.7,4c-1.8,0.2-3.6-2.5-3.6-4.9c0-2.6,1.9-3.3,3.8-3.6
			C60.7,252.7,62.1,254.8,62.1,257.5z"/>
		<path class="st4" d="M296.1,230.7c3-0.9,3.2,2.6,3.4,3.9c0.2,1.7-1.9,3.3-4,3.3c-2.2,0-4-1.3-4.1-3.4
			C291.2,231.9,293.1,230.8,296.1,230.7z"/>
		<path class="st4" d="M366.7,253.7c-2.6,0.1-3.8-1.9-3.8-3.6c0-1.6,1-3.8,3.6-3.7c2.7,0.1,4.1,1.9,4.2,4
			C370.8,252.5,368.8,253.5,366.7,253.7z"/>
		<path class="st4" d="M152.1,261.5c1.3,0.1,3.3-0.1,3.6,2.5c0.2,2-2.4,4.9-4.4,4.7c-2.3-0.3-3.3-2.2-3.5-4.3
			C147.7,261.7,149.6,261.5,152.1,261.5z"/>
		<path class="st4" d="M338.6,184.3c-40.5,0-80.9,0-121.4,0.1c-3,0-3.7-1.1-2.9-3.6c0.6-1.9-0.1-3.8-0.3-5.6
			c-0.3-3.3,1.1-4.2,4.1-3.9c2.7,0.2,5.5,0.1,8.2,0.1c76.9,0,153.8,0,230.7,0c1.9,0,4.5-0.9,5.6,0.6c0.9,1.1,0.2,3.5,0.3,5.4
			c0,0.8-0.1,1.5,0,2.3c0.7,4.8,0.8,4.8-3.9,4.8C418.9,184.3,378.7,184.3,338.6,184.3z"/>
		<path class="st4" d="M113.3,105.7c0.9-0.1,1,0.6,1.4,1.1c2.2,2.7,4.8,4.9,8,6.4c2.8,1.3,3.3,4.6,5.2,6.8c1.8,2.1,3.8,3.8,5.9,5.4
			c6.2,4.8,10.5,11.4,16.8,16.3c3.7,2.9,6.7,7.3,10.2,10.8c1,1,0.1,1.9-0.4,2.4c-2.2,2.4-4.6,4.6-6.9,7c-1,1.1-1.2,0.5-2.1-0.4
			c-3-3.2-6.1-6.3-9.7-8.9c-3-2.2-4.5-6.4-7.7-8.6c-7.4-4.9-11.6-13.1-19-18.3c-3.8-2.7-6.5-7.5-10.4-10.7c-0.4-0.3-0.9-0.9-0.3-1.4
			c2.9-2.3,5.7-4.6,7.7-7.7C112.2,105.7,112.9,105.8,113.3,105.7z"/>
		<path class="st4" d="M103.1,171.3c7.2,0,14.4-0.1,21.6,0c4.6,0.1,9.1,0.4,13.7,0.5c1.4,0,1.9,0.5,1.9,1.9c-0.1,2.8,0,5.7,0,8.5
			c0,2.6-2,2.9-3.6,2.5c-4.7-1-9.3-0.5-14-0.5c-15.7-0.1-31.4-0.1-47.1,0c-2.4,0-3.4-0.8-3.1-3.2c0.2-1.8,0.1-3.7,0.1-5.6
			c-0.1-4,0.2-4.3,4.4-4.3C85.6,171.3,94.3,171.3,103.1,171.3z"/>
		<path class="st4" d="M158.2,190.1c-2.8,0-4.4-1.7-4.4-4.4c0.1-2.5,1.9-4.1,4.7-4.1c2.8,0,4.9,1.9,4.9,4.4
			C163.5,188.3,161.1,190.2,158.2,190.1z"/>
		<path class="st4" d="M402.8,159.3c-0.3-2.2,0.2-3.8,2.9-3.8c2.4,0,4.8,2.1,4.8,4.3c0,2.1-2.3,4.7-4.3,4.8
			C404,164.7,402.8,162.9,402.8,159.3z"/>
		<path class="st4" d="M86.3,146.4c0.3,2.7-0.3,4.6-3.3,4.5c-2.7-0.1-3.8-2.1-4.4-4.4c-0.4-1.5,3.1-4.8,4.7-4.6
			C86.1,142.2,86.6,144.1,86.3,146.4z"/>
		<path class="st4" d="M150.6,107.9c0.5-1.4,0-3.9,2.9-4c2.3-0.2,4.8,2.2,4.8,4.3c0,2.4-2.4,4.8-4.7,4.8
			C152,112.8,150.6,110.7,150.6,107.9z"/>
		<path class="st4" d="M170.7,197.4c-3.4-0.2-5.6-0.9-5.6-3.6c0-2.8,2.3-3.5,4.7-3.6c2.6-0.1,4.6,1.1,4.5,3.5
			C174.2,195.8,172.5,197.6,170.7,197.4z"/>
		<path class="st4" d="M427.8,151.4c2.3,0.5,3.6,2.1,3.4,4.1c-0.2,2-1.7,3.7-3.8,3.6c-2-0.1-3.9-1-3.9-3.8
			C423.7,152.4,426,152.2,427.8,151.4z"/>
		<path class="st4" d="M229.6,154.1c0.7-1.8,1.2-3.7,3.5-3.8c1.9-0.1,4.5,2.4,4.4,4.1c-0.1,1.9-2.7,3.8-5,3.7
			C229.8,157.9,230.6,155.5,229.6,154.1z"/>
		<path class="st4" d="M328.5,73.6c-2.5-0.5-3.9-1.9-3.8-4.4c0.1-2.5,1.3-4.1,3.9-4c2.9,0,4.5,1.8,4.5,4.7
			C333.1,73,330.7,73.1,328.5,73.6z"/>
		<path class="st4" d="M214.3,65.4c0,1.7-3,4.6-4.7,4.2c-2.1-0.6-3.9-1.9-4-4.5c-0.1-2.4,1.7-3.7,4.5-3.8
			C213.3,61,214.2,62.7,214.3,65.4z"/>
		<path class="st4" d="M392.1,118.6c0,2.2-2.1,4.5-4.1,4c-2.1-0.5-3.8-2.2-3.5-4.3c0.3-1.9,1.2-4.3,3.8-4.6
			C390,113.5,392.1,116.4,392.1,118.6z"/>
		<path class="st4" d="M371.6,116.5c-2.2-0.4-3.6-2-3.5-4.2c0.1-2.4,2.1-3.2,4.4-3.2c2.3,0,3.7,1.2,3.8,3.5
			C376.5,114.6,374.2,116.5,371.6,116.5z"/>
		<path class="st4" d="M254.6,46.1c0.1,2.9-1.9,3.7-4.2,3.8c-2.4,0.1-4-1.7-4.1-3.7c-0.1-2,1.4-3.3,3.8-3.4
			C252.4,42.9,254.5,43,254.6,46.1z"/>
		<path class="st4" d="M294.1,111c2.3-0.3,3.6,0.7,3.8,3.2c0.2,3.1-2.2,3.4-4.2,3.8c-1.5,0.3-4.6-2.6-4.2-4
			C290,111.7,291.7,110.8,294.1,111z"/>
		<path class="st4" d="M348.5,86.6c-2.3,0.3-3.7-0.3-3.5-2.9c0.2-2.3,0.7-4.4,3.4-4.7c3.6-0.4,3.2,2.8,3.4,4.7
			C352,85.5,351,87.4,348.5,86.6z"/>
		<path class="st4" d="M285.4,101.2c-0.2,2-0.7,4-3.3,3.7c-2-0.3-3.8-1.7-3.7-3.7c0.1-2.3,1.8-3.4,4.3-3.3
			C285.1,97.9,285.6,99.2,285.4,101.2z"/>
		<path class="st4" d="M405.8,97.9c2.7,0,4.1,0.8,4,3.4c-0.1,2.8-2.1,3.5-4,3.6c-2.3,0.1-2.9-2.1-3-3.8
			C402.7,99.1,403.7,97.5,405.8,97.9z"/>
		<path class="st4" d="M325.3,91.3c-2.4,0-3.7-1.8-3.6-3.7c0.1-1.9,1.9-2.9,4-2.8c2,0.1,3.4,1.2,3.4,3.1
			C329.1,90.1,327.6,91.3,325.3,91.3z"/>
		<ellipse class="st5" cx="259.7" cy="256.2" rx="246.3" ry="242.3"/>
	</g>
</g>
</svg>
