<svg xmlns="http://www.w3.org/2000/svg" xml:space="preserve" id="Calque_1" x="0" y="0" version="1.1" viewBox="0 0 14513.4 14513.4"><style>.st4{fill:#c2c2c2}</style><linearGradient id="SVGID_1_" x1="10553.801" x2="10918.14" y1="1466.995" y2="1147.825" gradientUnits="userSpaceOnUse"><stop offset="0" style="stop-color:#ff7a29"/><stop offset=".25" style="stop-color:#ff5020"/><stop offset=".464" style="stop-color:#ff2416"/><stop offset=".914" style="stop-color:red"/></linearGradient><path d="m11092.6 1031.7-502.8 255.8V1479h119.1z" style="fill:url(#SVGID_1_)"/><linearGradient id="SVGID_00000045576686101639749970000007167919967985592245_" x1="11133.672" x2="11959.112" y1="2598.958" y2="1875.852" gradientUnits="userSpaceOnUse"><stop offset="0" style="stop-color:#ff7a29"/><stop offset=".25" style="stop-color:#ff5020"/><stop offset=".464" style="stop-color:#ff2416"/><stop offset=".914" style="stop-color:red"/></linearGradient><path d="m11166.7 2570.7 374.8 35.3 798.3-1010-1146.7 586.6z" style="fill:url(#SVGID_00000045576686101639749970000007167919967985592245_)"/><linearGradient id="SVGID_00000016764251259669274400000014984080775659280565_" x1="13314.645" x2="13722.526" y1="4991.963" y2="4634.648" gradientUnits="userSpaceOnUse"><stop offset="0" style="stop-color:#ff7a29"/><stop offset=".25" style="stop-color:#ff5020"/><stop offset=".464" style="stop-color:#ff2416"/><stop offset=".914" style="stop-color:red"/></linearGradient><path d="m13327.7 4974.3 185.3 22.1 414.6-480.7-599.9 286.6z" style="fill:url(#SVGID_00000016764251259669274400000014984080775659280565_)"/><linearGradient id="SVGID_00000139256582570499900090000017885070331779706001_" x1="13378.303" x2="14004.077" y1="3591.452" y2="3043.258" gradientUnits="userSpaceOnUse"><stop offset="0" style="stop-color:#ff7a29"/><stop offset=".25" style="stop-color:#ff5020"/><stop offset=".464" style="stop-color:#ff2416"/><stop offset=".914" style="stop-color:red"/></linearGradient><path d="M13420.4 3589.5h277.8l586.6-767.4-864.4 454.2z" style="fill:url(#SVGID_00000139256582570499900090000017885070331779706001_)"/><path d="M8123 2355.5c-1726.6-359-3471.1-117.7-4912.1 679.4-457.2 252.9-866.6 552.3-1222.6 890.5 90 37.3 173.6 86.7 249.2 146 325.4-300 695.7-567.1 1107.2-794.6 964.2-533.3 2070.9-807.2 3215.9-807.2 497.7 0 1002.7 51.8 1506.2 156.4 152.3 31.7 302.7 67.9 451.1 108.4l333.5-190.2c-237.8-73.9-480.7-137.2-728.4-188.7m1538 795.3 316.4-154.6c-103.4-51.7-208.3-101.2-314.7-148.2l-204.5 212.9c68.2 29 135.8 58.9 202.8 89.9m884.6 489.3 268.8-152.9c-59-40.2-118.6-79.8-179-118.4l-166.9 221.5c25.9 16.3 51.5 33 77.1 49.8m2622.6 5595.5c-294.6 1416.9-1214.8 2616.4-2591.2 3377.8-1383.2 765.1-3060.2 996.2-4722.1 650.7s-3107.8-1225.9-4071.4-2478.9C824.7 9538.3 458.9 8071.4 753.4 6654.5c60.6-291.4 148-573.4 260.1-844.5-82.1-51.9-156.7-114.6-221.6-186.3-135 311.3-238.9 637-309.1 974.5-311.2 1497 72.9 3043.7 1081.6 4355.4 1003.9 1305.4 2507.7 2222.1 4234.3 2581.1 522.1 108.6 1045.7 162.2 1562.3 162.2 1191.5 0 2344.6-285.6 3349.8-841.6 1447.9-800.9 2416.8-2066.4 2728-3563.3l-135.3-28.1 135.3 28.1c213.9-1028.6 99.4-2080.8-320.5-3064l-202.1 236c354.6 894.7 444.9 1843.9 252 2771.6m-552.8-3406.2 231.5-152c-52.8-94.2-108.7-187.5-167.4-279.9l-181.7 231.2c40.7 66.4 80.1 133.3 117.6 200.7" class="st4"/><path d="M1082.9 5649.9c142.3 96.1 313.9 152.2 498.5 152.2 492.8 0 892.4-399.5 892.4-892.4 0-294.5-142.7-555.6-362.7-718.1-77.6-57.3-164.7-102.3-258.6-132.2-85.5-27.2-176.5-42-271-42-492.8 0-892.4 399.5-892.4 892.4 0 203.1 68 390.3 182.3 540.3 59.1 77.4 130.5 145.1 211.5 199.8" style="fill:red"/><path d="M11813.9 8954.1c-460.1 2213.1-3011.7 3560.8-5687.5 3004.6-574.8-119.5-1109.1-317.5-1589.6-576.3-51.8 80.4-117.2 151.2-193 209 519.3 288.2 1100 507.7 1726.3 637.9 426.1 88.6 849.2 131 1262.4 131 2326.4 0 4334.9-1343.8 4752-3349.8 109.3-525.6 100-1053-11.3-1561.9l-229.9 268.5c63.6 406 56.9 822.2-29.4 1237M3978.5 4156c-1142 607.4-1902.5 1574.7-2141.4 2723.8-283 1361.1 227.6 2734.5 1251.5 3766.6 34.9-89.6 85.1-171.6 147.5-242.7-928.6-961.6-1387.6-2221-1128.4-3467.7 221.9-1067.3 932.4-1967.9 2000.6-2536 739.7-393.4 1589.2-595 2470.3-595 20.1 0 40.2.6 60.3.8l448.8-255.9c-1105.6-92-2187.3 115.9-3109.2 606.1" class="st4"/><path d="M4177.3 11495.3c83.4-49.5 155-116.7 208.6-197.2 68-102.1 107.8-224.6 107.8-356.5 0-355.6-288.3-643.9-643.9-643.9-197.1 0-373.2 88.8-491.3 228.2-61.7 72.8-107 159.6-131.5 254.8-13.3 51.5-21.1 105.2-21.1 160.9 0 355.6 288.3 643.9 643.9 643.9 119.8 0 231.5-33.3 327.5-90.2" style="fill:#ff7a29"/><path id="Voule" d="M7250 9942.3h-207.3c-6.5-2-13-5.1-19.6-5.7-94.6-9.6-190.2-13.5-283.8-29.3-488.2-82.1-917.4-289-1278-628.4-468.6-441-729.5-984.5-778-1627.4-32.6-432.1 39.3-847.5 232.3-1235.3 382.5-768.8 1000.7-1228.2 1847.8-1375.6 92.1-16 186.1-21.4 279.3-31.7H7250c91.7 10.4 183.8 18 275 31.8 1048.4 158 1888 991.6 2053.7 2039.6 15.7 99.3 23.3 200 34.6 300V7571c-2.1 14.9-5.1 29.8-6.2 44.7-47.5 696.5-333.5 1276.2-860.8 1732.8-368.6 319.2-799.1 507.2-1283.2 570.4-70.8 9.2-142.1 15.6-213.1 23.4M6784.9 6485c-236.1 507.6-344.9 1225.1-226.4 1887.9 611-91.1 1157.4-325 1634.9-725.4-355.5-529.9-829.9-906.6-1408.5-1162.5m-420.3 1911.7C6261 7707.8 6331.7 7049 6601.9 6413c-186.3-66.9-374.1-118.4-566.7-147.7-7.7 15.5-13.8 26.4-18.7 37.8-184.6 430.1-273.8 880.3-281.1 1347.1-3.4 215.3 14.4 429.5 47.1 642.5 14.3 93.3 13.8 93.3 108.8 100 9.6.7 19.1 3.8 28.6 3.8 146.1.3 292.2.2 444.7.2m1971.3-885.2c5.5-3.2 9.4-4.6 12.1-7.2 126.5-123.9 239.3-259.4 337-407.1 6.3-9.6 4.8-32.1-2.3-41.7-72.4-97.3-142.3-197-221.5-288.5-204.3-236.2-440.8-436.3-703.6-605.2-188.4-121.1-386.3-223.4-596.6-306.7-114.5 141.7-211.2 292.7-295 455.2C7469.4 6576 7963.7 6969 8335.9 7511.5M6587.3 8562.8c49.1 158.2 97.5 313.8 146.9 473 126.5-22.2 243.6-39.1 359.1-63.8 516.4-110.4 981-330.5 1391.2-663.7 9.1-7.4 14.6-29 11-40.7-15-48.7-31.6-97.3-52.3-143.9-45.6-102.9-93.9-204.6-143.3-311.5-503.9 411.7-1071.3 653.9-1712.6 750.6m-752.1-2327.6c-82.1-3.4-159.2-3.7-235.7-10.6-82-7.3-82.3-10.2-115.6 64.7-186.5 420.3-276.8 862.3-286.4 1320.2-3.6 171.8 10.5 344.2 22.3 515.9 10 146.6 13.5 146.8 157.5 182.7 72.5 18 145.6 33.8 221.5 51.2-118.2-733.3-47.7-1437.9 236.4-2124.1m979.8 2980c48.1 86.8 94.8 167.9 138.1 250.9 17 32.6 39.2 41.4 73.1 35.7 177.6-30.4 357.1-52.3 532.7-91.6 371.1-83 718-226.1 1031.2-445.6 20.5-14.4 29.1-28.1 26.3-54-9.4-84.8-14.2-170.2-24.4-254.9-6.2-51.4-19.1-101.9-30.1-158.5-518 399.1-1097.2 632.1-1746.9 718m473.4-3516.8c309.8 131 588.9 293.4 845.7 493.9s480.9 432.3 676.9 705.5c38.1-83.8 71.7-160.4 107.7-235.8 13.1-27.4 7.9-47.3-8.6-71.4-190.1-278.2-420.3-517.7-688.8-721-204.4-154.8-423.9-283.7-658.8-386.4-10.1-4.4-28.7-4.6-35.9 1.7-78.6 68.7-155.8 139.1-238.2 213.5m-1171.8 375.7c197.1 53.9 382.9 104.7 565.3 154.7 91.1-145.8 184.2-294.9 278.9-446.5-33-10.3-68.8-23.9-105.8-32.7-135.4-31.9-270.9-63-406.8-92.4-20.8-4.5-45.4-11.7-62.9 14.8-88.9 134.3-178.9 267.9-268.7 402.1m2550 2071.7c125.9-120.5 239.9-254.6 339.8-400.6 7-10.2 7.7-29.1 3.7-41.5-15.8-48.5-31.9-97.2-52.8-143.6-44.9-99.9-92.8-198.5-138.8-296.1-126.2 145.5-247.7 285.4-366.2 422.1 70.8 151.9 142.3 305.2 214.3 459.7m-2818.5 442.1c-.1 2.3-1.4 6.5-.3 10 43.1 135.1 86.1 270.2 130.8 404.7 3 8.9 19.4 17.5 30.5 18.8 75 8.9 150.2 19.4 225.5 22.3 99.5 3.8 199.3.9 297.3.9-45.7-155.5-90.6-308.1-134.3-456.7zm-554.5-2348.4c-39.5-10.8-61.1 3.6-77.6 34.8-22.5 42.6-50 82.7-72.6 125.3-202.5 380.2-293.9 784.6-266.5 1215.6 11.2 175.5 40.2 347.2 91.3 515.2 13.9 45.6 15.2 46.3 65.2 55.4-80.4-670.1 0-1319.1 260.2-1946.3m3712.6 150.9c10.2-45.3 17.5-81.7 26.7-117.6 8-31.2 1.6-56.3-17.7-83.4-99.2-140-209.7-269.6-336.3-385.9-243.5-223.7-522.8-385-835.9-490.4-48.5-16.3-83.2-7.7-119.8 29.7 510.5 244.9 940.8 585.4 1283 1047.6m86.1 1586.1c-9.8 2.1-13.4 1.8-14.9 3.4-113.5 121.7-227 243.5-339.7 365.9-6.2 6.7-10 19.9-8.3 28.8 26.1 138.6 53.2 277 80.2 415.9-1.2.4 3.6.4 6.2-2 102.4-96 205.1-191.9 306.2-289.2 10.2-9.8 15.4-29.3 15.4-44.4-.1-59.2.3-118.7-5.9-177.4-10.5-100.3-25.8-200.2-39.2-301M6548.7 5476.8c18.6 5.2 30.1 8.6 41.8 11.6 134.7 34 271.9 60.6 403.1 104.8 77.9 26.2 129.7 27.6 179.5-45.4 40.8-59.9 94.8-110.7 142.9-165.6 7.4 7.4 3.1 3.3-1.8 2-162.3-42.4-324.8-84-487-127-27.4-7.3-45.7.9-65.4 19.7-40.8 38.9-84.9 74.5-126.3 112.9-29 26.7-55.8 55.7-86.8 87m-473.4 3754.5c44.9 80.4 89.5 162.3 137 242.5 6.6 11.2 27.6 18.4 42.4 19.4 149.7 9.6 299.4 17.7 449.2 25.6 16.6.9 33.4-1.7 52.1-2.9-49.8-98.1-96.4-189.8-144.6-284.7-176.3.1-353.5.1-536.1.1M5274.2 8485c37.8 128.1 73.8 250.6 110.5 372.9 2 6.8 9.4 14.8 15.9 16.9 117.4 37.2 235 73.5 356.6 111.3 0-15.5.9-19.7-.1-23.3-37.6-128.1-75-256.4-114.2-384-3.1-10.2-18.7-21.1-30.3-23.6-108.7-23.6-217.7-45.4-338.4-70.2M5610 6030.8c95.6 6.2 181.1 8.8 265.7 18.7 32.7 3.8 47.5-1 64.3-30.5 67.4-118.5 138.7-234.9 208.8-351.9 7.4-12.3 16-24 30.5-45.7-93.8 0-177.5-1.6-261.1 1.3-18.5.6-42.6 12.5-53.7 27.1-54.9 72.4-107.7 146.5-158.5 221.8-33.5 49.7-62.2 102.7-96 159.2m1497.2 3654.5c-1.9 3.8-3.9 7.7-5.8 11.5 21.9 17.3 44.5 50.2 65.7 49.3 116.7-5 234.2-10.9 349.2-30 395.9-65.7 749.6-228.2 1062-480.1 11-8.9 17.9-23 26.8-34.6-2.6-2.7-5.1-5.4-7.7-8.2-456.8 284.9-960.1 429.1-1490.2 492.1m1825.5-2612.7c73.1 145.3 145.3 288.7 220.9 439 32.6-70.4 64.2-137.1 93.9-204.6 3.7-8.4-.4-21.7-3.9-31.6-25.4-71.4-49-143.7-78.3-213.5-31.8-75.8-69.1-149.4-106.9-230.1-45.7 87.5-86.9 166.4-125.7 240.8m383.8 1062.6c65.8-173.8 24.8-347.7 5.6-522-31.7 44.9-59.3 90.5-85.7 136.7-3.5 6.2-3.2 16-1.6 23.4 26.7 119.7 53.9 239.3 81.7 361.9M9184.1 6478c-9.1 29-13.4 50.6-22.6 70.1-17.1 36.3-9.3 65.3 11 99.4 41.5 69.6 77 142.9 113.9 215.2 20.8 40.8 39.4 82.8 59 124.2 4.5-1.8 9-3.6 13.4-5.3-34.3-172.7-94.9-336.5-174.7-503.6M5936.5 9406.6c2.8-3.3 5.6-6.6 8.4-10-29.7-62-59.1-124.1-89.7-185.7-4.4-8.8-13.8-19.1-22.6-21-72.1-15.7-144.5-29.5-216.9-43.9l-7.2 11.1c109.4 83.3 218.7 166.4 328 249.5m492.3-4071.3c-3.3-5.3-6.7-10.6-10-15.9-83.9 34.3-167.7 68.6-261.3 106.8 100.1 24.7 182.8 32.6 235.6-63.3 6.7-12 23.5-18.5 35.7-27.6M6764.3 9716c42.1 5.9 84.3 11.7 135.3 18.9-44.3-57.9-93.4-11.8-135.3-18.9" style="fill:#fff"/><linearGradient id="SVGID_00000003093962031270963470000007889325773621208239_" x1="4328.229" x2="11222.646" y1="10132.118" y2="4092.439" gradientUnits="userSpaceOnUse"><stop offset="0" style="stop-color:#ff7a29"/><stop offset=".25" style="stop-color:#ff5020"/><stop offset=".464" style="stop-color:#ff2416"/><stop offset=".914" style="stop-color:red"/></linearGradient><path d="m13531.9 4063.2-2058.2 1187.9 2869.7-3563.6-4610.3 2622.7 1187.9-1576-2575.7 1258.5 2022.9-2105.2-3991.3 2275.8C4854.8 4551.1 3729.1 5931 3729.1 7573.9c0 1943.8 1575.7 3519.5 3519.5 3519.5 1359.1 0 2538.1-770.5 3124.5-1898.3l3276.4-3826.3-2364 1552.4zM7173.7 9934.8c-1341.6 0-2429.2-1087.6-2429.2-2429.2s1087.6-2429.2 2429.2-2429.2S9602.9 6164 9602.9 7505.6 8515.3 9934.8 7173.7 9934.8" style="fill:url(#SVGID_00000003093962031270963470000007889325773621208239_)"/></svg>