<svg xmlns="http://www.w3.org/2000/svg" viewBox="0 0 137 135.9"><defs><style>.a{fill:#f39200}</style></defs><path class="a" d="m57 68 11 13 11 11 20 21 8 8 6 6 1 2a2 2 0 0 0 2 0 2 2 0 0 0 1 0 2 2 0 0 0 0-1 2 2 0 0 0 0-1l-5-6-7-6-8-8-20-20-12-11-6-6-2-1v-1M31 42l20 21v1h1a1 1 0 0 0 0-2L31 42m52 26 9 11 10 10 17 17 6 7 6 5 1 1a2 2 0 0 0 2-2v-1l-5-4-5-5-7-7-17-17-10-9-6-5-1-1"/><path class="a" d="m1 1 71 65a390 390 0 0 0 60 49 11 11 0 0 1 2 18 11 11 0 0 1-18-2 391 391 0 0 0-49-60L1 1C0 0 0 0 1 1Z"/><path d="m43 46 41 38a330 330 0 0 0 51 41 8 8 0 0 1 1 13 8 8 0 0 1-12-2 330 330 0 0 0-42-50L43 46" transform="translate(-5 -7)" style="fill:#fbdaa0"/><path d="M134 135a5 5 0 0 0-1-8l-22-15 14 22a5 5 0 0 0 9 1Z" transform="translate(-5 -7)" style="fill:#fff"/></svg>