<svg version="1.1" id="svg1" xmlns="http://www.w3.org/2000/svg" x="0" y="0" viewBox="0 0 472.4 468.2" style="enable-background:new 0 0 472.4 468.2" xml:space="preserve"><style>.st0{fill:#f9c310}.st1{fill:none;stroke-width:3.4016;stroke:#000}.st1,.st2,.st3{stroke-miterlimit:11.3386}.st2,.st3,.st4,.st5{stroke:#000}.st2{fill:#f9c310;stroke-width:3.4016}.st3{stroke-width:2.8346}.st4,.st5{fill:#fff;stroke-width:3.4016;stroke-miterlimit:11.3387}.st5{fill:none;stroke-linecap:square;stroke-miterlimit:11.3386}</style><g id="layer1" transform="translate(-20.406 -65.203)"><g id="g22"><path id="path15-9" class="st0" d="m151.1 81.6-2 3.2s257.5 165.9 296 391.9l12.6-3.1c-38.9-228.6-306.6-392-306.6-392z"/><path id="path16" class="st0" d="M463.7 480.4c1.7 7.5-1.3 14.5-6.7 15.6-5.3 1.1-11.1-4.1-12.6-11.6-1.7-7.5-6.4-47.5-1.1-48.6 5.3-1.2 18.6 37.1 20.4 44.6z"/></g><g id="g1"><path id="path179" class="st1" d="M334.1 284.8h-60.6m-88.9 0h-60.5"/><path id="path181-8" class="st1" d="m128.2 275.2 52.3 90.5"/><path id="path181" class="st1" d="m330.9 275.2-51.8 90.5"/><path id="path2" class="st2" d="M89.6 439.1v26.5h279.9v-26.5H89.6z"/><path id="rect2" class="st2" d="M169.7 465.6h119.8l3.6 51.3H165.9l3.8-51.3z"/><path id="rect8" class="st2" d="M186 292.2h87.2l11.9 146.9h-111L186 292.2z"/><path id="path8" class="st2" d="M277.8 292.2c-8.9-.3-85.6 0-96 0h-.4c16.9-26.2 21.6-51.4 48.2-51.4s31.4 26.1 48.2 51.4z"/><path id="path8-4" class="st2" d="M254.1 292.2c-4.5-.3-44.5 0-49 0 0-30 10.9-51.4 24.5-51.4 13.6.2 24.5 21.5 24.5 51.4z"/><path id="rect23" class="st3" d="M247.2 314.5h5.5v18.6h-5.5z"/><path id="rect23-1" class="st3" d="M241.2 372.4h5.5V391h-5.5z"/><g id="g11" transform="rotate(30.237 -30.777 121.286)"><circle id="path9" transform="rotate(-59.763 271.48 118.877)" class="st1" cx="271.5" cy="118.9" r="5.2"/><g id="g2"><path id="rect11" transform="matrix(.00414 1 -1 .00414 511.53 -247.924)" class="st4" d="M365.9 53.6h28.6v158.5h-28.6z"/><path id="rect11-2" transform="matrix(.00414 1 -1 .00414 483.965 -30.983)" class="st4" d="M178.3 213.2h158.5v28.6H178.3z"/><path id="rect11-1" transform="matrix(.00414 1 -1 .00414 267.16 -58.415)" class="st4" d="M148.6 25.7h28.6v158.5h-28.6z"/><path id="rect11-6" transform="matrix(.00414 1 -1 .00414 294.458 -275.353)" class="st4" d="M206.3-4.2h158.5v28.6H206.3z"/></g><path id="path10" class="st5" d="m271.5 123.9.7 182.7"/><path id="path10-7" class="st5" d="m276.7 118.9 182.7-.7"/><path id="path10-7-9" class="st5" d="m83.6 119.4 182.7-.7"/><path id="path10-7-0" class="st5" d="m270.8-69 .7 182.7"/></g></g><path id="path1" class="st1" d="M46.4 517h420.5"/></g></svg>