<svg version="1.1" id="svg1" xmlns="http://www.w3.org/2000/svg" x="0" y="0" viewBox="0 0 472.4 468.2" style="enable-background:new 0 0 472.4 468.2" xml:space="preserve"><style>.st0{fill:#f9c310}.st1{fill:none;stroke-width:3.4016}.st1,.st2,.st3,.st4,.st5{stroke:#000;stroke-miterlimit:11.3386}.st2{fill:#f9c310;stroke-width:3.4016}.st3{stroke-width:2.8346}.st4,.st5{fill:#fff;stroke-width:3.4016}.st5{fill:none;stroke-linecap:square}</style><g id="layer1" transform="translate(-20.406 -65.203)"><g id="g22"><path id="path15-9" class="st0" d="m177.4 117-1.5 2.4S369.3 244 398.2 413.7l9.5-2.3C378.4 239.7 177.4 117 177.4 117z"/><path id="path16" class="st0" d="M412.1 416.5c1.3 5.6-1 10.9-5 11.7-4 .8-8.3-3.1-9.5-8.7-1.3-5.6-4.8-35.7-.8-36.5 4-.9 14 27.9 15.3 33.5z"/></g><g id="g1"><path id="path179" class="st1" d="M314.8 269.6h-45.5m-66.8 0h-45.4"/><path id="path181-8" class="st1" d="m160.2 262.4 39.3 68"/><path id="path181" class="st1" d="m312.4 262.4-38.9 68"/><path id="path2" class="st2" d="M131.2 385.5v19.9h210.2v-19.9H131.2z"/><path id="rect2" class="st2" d="M191.3 405.4h90l2.7 38.5h-95.5l2.8-38.5z"/><path id="rect8" class="st2" d="M203.6 275.2h65.5l8.9 110.3h-83.4l9-110.3z"/><path id="path8" class="st2" d="M272.5 275.2c-6.7-.2-64.3 0-72.1 0h-.3c12.7-19.7 16.2-38.6 36.2-38.6s23.6 19.6 36.2 38.6z"/><path id="path8-4" class="st2" d="M254.7 275.2c-3.4-.2-33.4 0-36.8 0 0-22.5 8.2-38.6 18.4-38.6 10.2.1 18.4 16.1 18.4 38.6z"/><path id="rect23" class="st3" d="M249.5 291.9h4.1v14h-4.1z"/><path id="rect23-1" class="st3" d="M245 335.4h4.1v14H245z"/><g id="g11" transform="rotate(30.237 -30.777 121.286)"><circle id="path9" class="st1" cx="270.9" cy="105.5" r="3.9"/><g id="g2"><path id="rect11" transform="matrix(.00414 1 -1 .00414 467.011 -237.03)" class="st4" d="M341.8 56.4h21.5v119h-21.5z"/><path id="rect11-2" transform="matrix(.00414 1 -1 .00414 446.39 -74.104)" class="st4" d="M200.9 176.3h119v21.5h-119z"/><path id="rect11-1" transform="matrix(.00414 1 -1 .00414 283.465 -94.725)" class="st4" d="M178.6 35.4h21.5v119h-21.5z"/><path id="rect11-6" transform="matrix(.00414 1 -1 .00414 304.086 -257.65)" class="st4" d="M221.9 13.1h119v21.5h-119z"/></g><path id="path10" class="st5" d="m270.9 109.3.5 137.2"/><path id="path10-7" class="st5" d="M274.8 105.5 412 105"/><path id="path10-7-9" class="st5" d="m129.8 105.9 137.2-.5"/><path id="path10-7-0" class="st5" d="m270.4-35.6.5 137.2"/></g></g><path id="path1" class="st1" d="M98.7 444h315.8"/></g></svg>