<svg xmlns="http://www.w3.org/2000/svg" xml:space="preserve" viewBox="0 0 137 135.9"><linearGradient id="a" x1="161.617" x2="248.327" y1="-36.834" y2="-112.794" gradientTransform="rotate(-90 220.582 67.95)" gradientUnits="userSpaceOnUse"><stop offset="0" style="stop-color:#ff7a29"/><stop offset=".25" style="stop-color:#ff5020"/><stop offset=".464" style="stop-color:#ff2416"/><stop offset=".914" style="stop-color:red"/></linearGradient><path d="M38.8 12.1 54 37.7 8.4 2l33.5 57.3-20.1-14.8 16.1 32L11 51.4 40.1 101c5 18.9 22.6 32.9 43.6 32.9 24.8 0 44.9-19.6 44.9-43.8 0-16.9-9.8-31.6-24.2-38.8L55.5 10.6 75.3 40zm75 79c0 16.7-13.9 30.2-31 30.2s-31-13.5-31-30.2 13.9-30.2 31-30.2 31 13.5 31 30.2" style="fill:url(#a)"/><path d="M84.1 121.6h-2.6c-.1 0-.2-.1-.3-.1-1.2-.1-2.4-.2-3.6-.4-6.2-1-11.7-3.7-16.3-8-6-5.6-9.3-12.6-9.9-20.8-.4-5.5.5-10.8 3-15.8 4.9-9.8 12.8-15.7 23.6-17.6 1.2-.2 2.4-.3 3.6-.4h2.6c1.2.1 2.3.2 3.5.4 13.4 2 24.1 12.7 26.2 26 .2 1.3.3 2.6.4 3.8v2.4c0 .2-.1.4-.1.6-.6 8.9-4.3 16.3-11 22.1-4.7 4.1-10.2 6.5-16.4 7.3-.9.3-1.8.4-2.7.5m-5.9-44.1c-3 6.5-4.4 15.6-2.9 24.1 7.8-1.2 14.8-4.1 20.9-9.3-4.6-6.8-10.7-11.6-18-14.8m-5.4 24.4c-1.3-8.8-.4-17.2 3-25.3-2.4-.9-4.8-1.5-7.2-1.9-.1.2-.2.3-.2.5-2.4 5.5-3.5 11.2-3.6 17.2 0 2.7.2 5.5.6 8.2.2 1.2.2 1.2 1.4 1.3h6M98 90.6c.1 0 .1-.1.2-.1 1.6-1.6 3.1-3.3 4.3-5.2.1-.1.1-.4 0-.5-.9-1.2-1.8-2.5-2.8-3.7-2.6-3-5.6-5.6-9-7.7-2.4-1.5-4.9-2.9-7.6-3.9-1.5 1.8-2.7 3.7-3.8 5.8 7.6 3.3 13.9 8.3 18.7 15.3M75.6 104c.6 2 1.2 4 1.9 6 1.6-.3 3.1-.5 4.6-.8 6.6-1.4 12.5-4.2 17.8-8.5.1-.1.2-.4.1-.5-.2-.6-.4-1.2-.7-1.8-.6-1.3-1.2-2.6-1.8-4-6.4 5.3-13.7 8.4-21.9 9.6M66 74.3c-1 0-2 0-3-.1s-1-.2-1.5.8c-2.4 5.4-3.5 11-3.7 16.9q0 3.3.3 6.6c.1 1.9.2 1.9 2 2.3.9.2 1.9.4 2.8.7C61.5 92 62.4 83 66 74.3m12.5 38c.6 1.1 1.2 2.1 1.8 3.2.2.4.5.5.9.5 2.3-.4 4.6-.7 6.8-1.2 4.7-1.1 9.2-2.9 13.2-5.7.3-.2.4-.4.3-.7l-.3-3.3c-.1-.7-.2-1.3-.4-2-6.6 5.2-14 8.1-22.3 9.2m6.1-44.9c4 1.7 7.5 3.7 10.8 6.3s6.1 5.5 8.6 9c.5-1.1.9-2 1.4-3 .2-.3.1-.6-.1-.9-2.4-3.6-5.4-6.6-8.8-9.2-2.6-2-5.4-3.6-8.4-4.9-.1-.1-.4-.1-.5 0zm-15 4.8c2.5.7 4.9 1.3 7.2 2l3.6-5.7c-.4-.1-.9-.3-1.4-.4-1.7-.4-3.5-.8-5.2-1.2-.3-.1-.6-.1-.8.2-1.1 1.7-2.2 3.4-3.4 5.1m32.6 26.5c1.6-1.5 3.1-3.3 4.3-5.1.1-.1.1-.4 0-.5-.2-.6-.4-1.2-.7-1.8-.6-1.3-1.2-2.5-1.8-3.8-1.6 1.9-3.2 3.6-4.7 5.4 1 1.8 2 3.8 2.9 5.8m-36 5.6v.1c.6 1.7 1.1 3.4 1.7 5.2 0 .1.2.2.4.2 1 .1 1.9.2 2.9.3H75c-.6-2-1.2-3.9-1.7-5.8zm-7.1-30c-.5-.1-.8 0-1 .4-.3.5-.6 1.1-.9 1.6-2.6 4.9-3.8 10-3.4 15.5q.15 3.3 1.2 6.6c.2.6.2.6.8.7-1-8.5 0-16.8 3.3-24.8m47.4 2c.1-.6.2-1 .3-1.5.1-.4 0-.7-.2-1.1-1.3-1.8-2.7-3.4-4.3-4.9-3.1-2.9-6.7-4.9-10.7-6.3-.6-.2-1.1-.1-1.5.4 6.5 3.1 12 7.5 16.4 13.4m1.1 20.2h-.2c-1.4 1.6-2.9 3.1-4.3 4.7-.1.1-.1.3-.1.4.3 1.8.7 3.5 1 5.3h.1c1.3-1.2 2.6-2.4 3.9-3.7.1-.1.2-.4.2-.6 0-.8 0-1.5-.1-2.3-.1-1.2-.3-2.5-.5-3.8M75.1 64.6c.2.1.4.1.5.1 1.7.4 3.5.8 5.1 1.3 1 .3 1.7.4 2.3-.6.5-.8 1.2-1.4 1.8-2.1.1.1 0 0 0 0-2.1-.5-4.1-1.1-6.2-1.6-.4-.1-.6 0-.8.3-.5.5-1.1 1-1.6 1.4-.3.4-.7.8-1.1 1.2m-6 47.9c.6 1 1.1 2.1 1.7 3.1.1.1.4.2.5.2l5.7.3h.7c-.6-1.3-1.2-2.4-1.8-3.6zM58.9 103c.5 1.6.9 3.2 1.4 4.8 0 .1.1.2.2.2 1.5.5 3 .9 4.6 1.4v-.3c-.5-1.6-1-3.3-1.5-4.9 0-.1-.2-.3-.4-.3-1.4-.3-2.8-.6-4.3-.9m4.2-31.3c1.2.1 2.3.1 3.4.2.4 0 .6 0 .8-.4L70 67c.1-.2.2-.3.4-.6h-3.3c-.2 0-.5.2-.7.3-.7.9-1.4 1.9-2 2.8-.5.8-.8 1.4-1.3 2.2m19.2 46.6s0 .1-.1.1c.3.2.6.6.8.6 1.5-.1 3-.1 4.5-.4 5.1-.8 9.6-2.9 13.6-6.1.1-.1.2-.3.3-.4l-.1-.1c-5.8 3.7-12.3 5.5-19 6.3M105.6 85c.9 1.9 1.9 3.7 2.8 5.6.4-.9.8-1.8 1.2-2.6v-.4c-.3-.9-.6-1.8-1-2.7-.4-1-.9-1.9-1.4-2.9-.6 1-1.1 2-1.6 3m4.9 13.5c.8-2.2.3-4.4.1-6.7-.4.6-.8 1.2-1.1 1.7v.3c.3 1.6.6 3.2 1 4.7m-1.7-21.1c-.1.4-.2.6-.3.9-.2.5-.1.8.1 1.3l1.5 2.7c.3.5.5 1.1.8 1.6.1 0 .1 0 .2-.1-.5-2.2-1.3-4.3-2.3-6.4m-41.5 37.4.1-.1c-.4-.8-.8-1.6-1.1-2.4l-.3-.3c-.9-.2-1.8-.4-2.8-.6l-.1.1zm6.3-52c0-.1-.1-.1-.1-.2-1.1.4-2.1.9-3.3 1.4 1.3.3 2.3.4 3-.8 0-.2.2-.3.4-.4m4.3 55.9c.5.1 1.1.1 1.7.2-.6-.7-1.2-.1-1.7-.2" style="fill:#fff"/></svg>