<svg version="1.1" id="Calque_1" xmlns="http://www.w3.org/2000/svg" x="0" y="0" viewBox="0 0 512 512" style="enable-background:new 0 0 512 512" xml:space="preserve"><style>.st0{fill:#f9c931}.st2,.st7,.st8{stroke-miterlimit:11.3386}.st2{fill:none;stroke:#b4b4b4;stroke-width:3.4016}.st7,.st8{stroke:#000}.st7{fill:none;stroke-width:3.4016}.st8{stroke-width:2.8346}.st9{fill:#fff}.st10{fill:#b4b4b4}.st11{fill:none;stroke:#000;stroke-width:3.4016;stroke-linecap:square;stroke-miterlimit:11.3386}</style><g id="layer1" transform="translate(-5.887 -62.93)"><g id="g22"><path id="path15-9" class="st0" d="m130.5 67.7-2.4 3.7s296.6 191 340.9 451.3l14.5-3.6c-44.8-263.1-353-451.4-353-451.4z"/><path id="path16" class="st0" d="M490.3 527c1.9 8.7-1.5 16.7-7.6 18-6.1 1.3-12.7-4.7-14.6-13.4-1.9-8.7-7.3-54.8-1.2-56 6.2-1.3 21.5 42.8 23.4 51.4z"/><path id="path16-9" d="M484.5 528.7c1 4.4-.7 8.4-3.8 9-3.1.6-6.4-2.4-7.3-6.7-1-4.4-3.7-27.6-.6-28.2 3-.6 10.7 21.6 11.7 25.9z" style="fill:#f9f9f9"/></g><g id="g1"><path id="path179" class="st2" d="M341.1 301.8h-69.8m-102.4 0H99.3"/><path id="path181-8" class="st2" d="M104.1 290.7 164.3 395"/><path id="path181" class="st2" d="M337.5 290.7 277.9 395"/><linearGradient id="path2_00000175321520183707764790000013959244627274016388_" gradientUnits="userSpaceOnUse" x1="-76.342" y1="387.114" x2="39.235" y2="387.114" gradientTransform="matrix(2.8346 0 0 -2.8346 273.396 1592.049)"><stop offset="0" style="stop-color:#f9c310"/><stop offset=".803" style="stop-color:#f9eabe"/></linearGradient><path id="path2" style="fill:url(#path2_00000175321520183707764790000013959244627274016388_);stroke:#000;stroke-width:3.4016;stroke-miterlimit:11.3386" d="M59.6 479.5v30.4H382v-30.4H59.6z"/><linearGradient id="rect2_00000153697278471233447190000015997020193143231389_" gradientUnits="userSpaceOnUse" x1="-45.371" y1="371.326" x2="8.265" y2="371.326" gradientTransform="matrix(2.8346 0 0 -2.8346 273.396 1592.049)"><stop offset="0" style="stop-color:#f9c310"/><stop offset="1" style="stop-color:#f9eabe"/></linearGradient><path id="rect2" style="fill:url(#rect2_00000153697278471233447190000015997020193143231389_);stroke:#000;stroke-width:3.4016;stroke-miterlimit:11.3386" d="M151.8 510h138l4.2 59H147.6l4.2-59z"/><linearGradient id="rect8_00000141434174228913595610000010633960818067055282_" gradientUnits="userSpaceOnUse" x1="-42.105" y1="422.318" x2="4.999" y2="422.318" gradientTransform="matrix(2.8346 0 0 -2.8346 273.396 1592.049)"><stop offset="0" style="stop-color:#f9c310"/><stop offset="1" style="stop-color:#f9eabe"/></linearGradient><path id="rect8" style="fill:url(#rect8_00000141434174228913595610000010633960818067055282_);stroke:#000;stroke-width:3.4016;stroke-miterlimit:11.3386" d="M170.6 310.3H271l13.7 169.2H156.9l13.7-169.2z"/><linearGradient id="path8_00000023244706812210273200000013417646869828014465_" gradientUnits="userSpaceOnUse" x1="-39.825" y1="462.588" x2="2.766" y2="462.588" gradientTransform="matrix(2.8346 0 0 -2.8346 273.396 1592.049)"><stop offset="0" style="stop-color:#f9c310"/><stop offset="1" style="stop-color:#f9eabe"/></linearGradient><path id="path8" style="fill:url(#path8_00000023244706812210273200000013417646869828014465_);stroke:#000;stroke-width:3.4016;stroke-miterlimit:11.3386" d="M276.3 310.3c-10.3-.2-98.6 0-110.6 0h-.4c19.5-30.1 24.9-59.1 55.5-59.1s36.2 29.9 55.5 59.1z"/><path id="path8-4" class="st7" d="M249 310.3c-5.3-.2-51.3 0-56.4 0 0-34.6 12.6-59.1 28.2-59.1s28.2 24.6 28.2 59.1z"/><path id="rect23" class="st8" d="M241.1 335.9h6.3v21.5h-6.3z"/><path id="rect23-1" class="st8" d="M234.2 402.6h6.3v21.5h-6.3z"/><g id="g11" transform="rotate(30.237 -30.854 120.518)"><g id="g35"><path id="rect32" transform="matrix(.00414 1 -1 .00414 546.486 -243.63)" class="st9" d="M379.1 61.3H412v182.5h-32.9z"/><path id="rect33" transform="matrix(.00414 1 -1 .00414 514.865 6.208)" class="st9" d="M163 245.1h182.5V278H163z"/><path id="rect34" transform="matrix(.00414 1 -1 .00414 265.028 -25.413)" class="st9" d="M128.8 29.1h32.9v182.5h-32.9z"/><path id="rect35" transform="matrix(.00414 1 -1 .00414 296.648 -275.25)" class="st9" d="M195.3-5.1h182.5v32.9H195.3z"/></g><g id="g3"><path id="path3" class="st10" d="M269.7-79.9c16.5 0 26.6 113.9 33.7 182.4L302.6-80l-32.9.1z"/><path id="path3-3" class="st10" d="m304.2 136.5.1 32.9c-.1-16.5 113.9-26.3 182.4-33.7l-182.5.8z"/><path id="path3-1" class="st10" d="M271.2 352.8c-16.5-.2-27.2-113.8-33.7-182.4l.8 182.5 32.9-.1z"/><path id="path3-1-3" class="st10" d="M236.5 103.5c-.1 16.5-113.8 27.1-182.4 33.7l182.5-.8-.1-32.9z"/></g><circle id="path9" class="st7" cx="270.4" cy="136.5" r="5.9"/><g id="g2"><path id="rect11" transform="matrix(.00414 1 -1 .00414 546.486 -243.63)" class="st7" d="M379.1 61.3H412v182.5h-32.9z"/><path id="rect11-2" transform="matrix(.00414 1 -1 .00414 514.865 6.208)" class="st7" d="M163 245.1h182.5V278H163z"/><path id="rect11-1" transform="matrix(.00414 1 -1 .00414 265.028 -25.413)" class="st7" d="M128.8 29.1h32.9v182.5h-32.9z"/><path id="rect11-6" transform="matrix(.00414 1 -1 .00414 296.648 -275.25)" class="st7" d="M195.3-5.1h182.5v32.9H195.3z"/></g><path id="path10" class="st11" d="m270.4 142.4.7 210.4"/><path id="path10-7" class="st11" d="m276.4 136.5 210.4-.7"/><path id="path10-7-9" class="st11" d="m54.1 137.2 210.4-.7"/><path id="path10-7-0" class="st11" d="m269.7-79.9.7 210.4"/></g></g></g></svg>