<?xml version="1.0" encoding="utf-8"?>
<!-- Generator: Adobe Illustrator 27.5.0, SVG Export Plug-In . SVG Version: 6.00 Build 0)  -->
<svg version="1.1" id="Calque_1" xmlns="http://www.w3.org/2000/svg" xmlns:xlink="http://www.w3.org/1999/xlink" x="0px" y="0px"
	 viewBox="0 0 512 512" style="enable-background:new 0 0 512 512;" xml:space="preserve">
<style type="text/css">
	.st0{fill:#F9C931;}
	.st1{fill:#F9F9F9;}
	.st2{fill:none;stroke:#B4B4B4;stroke-width:3.4016;stroke-miterlimit:11.3386;}
	
		.st3{fill:url(#path2_00000004543902306925879550000006029739536966943373_);stroke:#000000;stroke-width:3.4016;stroke-miterlimit:11.3386;}
	
		.st4{fill:url(#rect2_00000109024359764137689650000005582762218634677922_);stroke:#000000;stroke-width:3.4016;stroke-miterlimit:11.3386;}
	
		.st5{fill:url(#rect8_00000120547158199194608320000000415488470254641326_);stroke:#000000;stroke-width:3.4016;stroke-miterlimit:11.3386;}
	
		.st6{fill:url(#path8_00000029728745465611961160000012149934345050131378_);stroke:#000000;stroke-width:3.4016;stroke-miterlimit:11.3386;}
	.st7{fill:none;stroke:#000000;stroke-width:3.4016;stroke-miterlimit:11.3386;}
	.st8{stroke:#000000;stroke-width:2.8346;stroke-miterlimit:11.3386;}
	.st9{fill:#FFFFFF;}
	.st10{fill:#B4B4B4;}
	.st11{fill:none;stroke:#000000;stroke-width:3.4016;stroke-linecap:square;stroke-miterlimit:11.3386;}
</style>
<g id="layer1" transform="translate(-5.886569,-62.930945)">
	<g id="g22">
		<path id="path15-9" class="st0" d="M130.5,67.7l-2.4,3.7c0,0,296.6,191,340.9,451.3l14.5-3.6C438.7,256,130.5,67.7,130.5,67.7z"/>
		<path id="path16" class="st0" d="M490.3,527c1.9,8.7-1.5,16.7-7.6,18c-6.1,1.3-12.7-4.7-14.6-13.4c-1.9-8.7-7.3-54.8-1.2-56
			C473.1,474.3,488.4,518.4,490.3,527L490.3,527z"/>
		<path id="path16-9" class="st1" d="M484.5,528.7c1,4.4-0.7,8.4-3.8,9c-3.1,0.6-6.4-2.4-7.3-6.7c-1-4.4-3.7-27.6-0.6-28.2
			C475.8,502.2,483.5,524.4,484.5,528.7L484.5,528.7z"/>
	</g>
	<g id="g1">
		<path id="path179" class="st2" d="M341.1,301.8h-69.8 M168.9,301.8H99.3"/>
		<path id="path181-8" class="st2" d="M104.1,290.7l60.2,104.3"/>
		<path id="path181" class="st2" d="M337.5,290.7l-59.6,104.3"/>
		
			<linearGradient id="path2_00000175321520183707764790000013959244627274016388_" gradientUnits="userSpaceOnUse" x1="-76.3416" y1="387.1143" x2="39.2354" y2="387.1143" gradientTransform="matrix(2.8346 0 0 -2.8346 273.3958 1592.0488)">
			<stop  offset="0" style="stop-color:#F9C310"/>
			<stop  offset="0.8026" style="stop-color:#F9EABE"/>
		</linearGradient>
		
			<path id="path2" style="fill:url(#path2_00000175321520183707764790000013959244627274016388_);stroke:#000000;stroke-width:3.4016;stroke-miterlimit:11.3386;" d="
			M59.6,479.5v30.4H382v-30.4H59.6z"/>
		
			<linearGradient id="rect2_00000153697278471233447190000015997020193143231389_" gradientUnits="userSpaceOnUse" x1="-45.3713" y1="371.326" x2="8.2651" y2="371.326" gradientTransform="matrix(2.8346 0 0 -2.8346 273.3958 1592.0488)">
			<stop  offset="0" style="stop-color:#F9C310"/>
			<stop  offset="1" style="stop-color:#F9EABE"/>
		</linearGradient>
		
			<path id="rect2" style="fill:url(#rect2_00000153697278471233447190000015997020193143231389_);stroke:#000000;stroke-width:3.4016;stroke-miterlimit:11.3386;" d="
			M151.8,510h138l4.2,59H147.6L151.8,510z"/>
		
			<linearGradient id="rect8_00000141434174228913595610000010633960818067055282_" gradientUnits="userSpaceOnUse" x1="-42.1055" y1="422.3177" x2="4.9993" y2="422.3177" gradientTransform="matrix(2.8346 0 0 -2.8346 273.3958 1592.0488)">
			<stop  offset="0" style="stop-color:#F9C310"/>
			<stop  offset="1" style="stop-color:#F9EABE"/>
		</linearGradient>
		
			<path id="rect8" style="fill:url(#rect8_00000141434174228913595610000010633960818067055282_);stroke:#000000;stroke-width:3.4016;stroke-miterlimit:11.3386;" d="
			M170.6,310.3H271l13.7,169.2H156.9L170.6,310.3z"/>
		
			<linearGradient id="path8_00000023244706812210273200000013417646869828014465_" gradientUnits="userSpaceOnUse" x1="-39.8255" y1="462.5876" x2="2.7663" y2="462.5876" gradientTransform="matrix(2.8346 0 0 -2.8346 273.3958 1592.0488)">
			<stop  offset="0" style="stop-color:#F9C310"/>
			<stop  offset="1" style="stop-color:#F9EABE"/>
		</linearGradient>
		
			<path id="path8" style="fill:url(#path8_00000023244706812210273200000013417646869828014465_);stroke:#000000;stroke-width:3.4016;stroke-miterlimit:11.3386;" d="
			M276.3,310.3c-10.3-0.2-98.6,0-110.6,0c-0.2,0-0.3,0-0.4,0c19.5-30.1,24.9-59.1,55.5-59.1S257,281.1,276.3,310.3z"/>
		<path id="path8-4" class="st7" d="M249,310.3c-5.3-0.2-51.3,0-56.4,0c0-34.6,12.6-59.1,28.2-59.1S249,275.8,249,310.3z"/>
		<rect id="rect23" x="241.1" y="335.9" class="st8" width="6.3" height="21.5"/>
		<rect id="rect23-1" x="234.2" y="402.6" class="st8" width="6.3" height="21.5"/>
		<g id="g11" transform="rotate(30.236814,-30.853782,120.51756)">
			<g id="g35">
				
					<rect id="rect32" x="379.1" y="61.3" transform="matrix(4.135814e-03 1 -1 4.135814e-03 546.4861 -243.6299)" class="st9" width="32.9" height="182.5"/>
				
					<rect id="rect33" x="163" y="245.1" transform="matrix(4.135714e-03 1 -1 4.135714e-03 514.8649 6.2082)" class="st9" width="182.5" height="32.9"/>
				
					<rect id="rect34" x="128.8" y="29.1" transform="matrix(4.135847e-03 1 -1 4.135847e-03 265.0276 -25.4126)" class="st9" width="32.9" height="182.5"/>
				
					<rect id="rect35" x="195.3" y="-5.1" transform="matrix(4.135714e-03 1 -1 4.135714e-03 296.6483 -275.2498)" class="st9" width="182.5" height="32.9"/>
			</g>
			<g id="g3">
				<path id="path3" class="st10" d="M269.7-79.9c16.5,0,26.6,113.9,33.7,182.4L302.6-80L269.7-79.9z"/>
				<path id="path3-3" class="st10" d="M304.2,136.5l0.1,32.9c-0.1-16.5,113.9-26.3,182.4-33.7L304.2,136.5z"/>
				<path id="path3-1" class="st10" d="M271.2,352.8c-16.5-0.2-27.2-113.8-33.7-182.4l0.8,182.5L271.2,352.8z"/>
				<path id="path3-1-3" class="st10" d="M236.5,103.5c-0.1,16.5-113.8,27.1-182.4,33.7l182.5-0.8L236.5,103.5z"/>
			</g>
			<circle id="path9" class="st7" cx="270.4" cy="136.5" r="5.9"/>
			<g id="g2">
				
					<rect id="rect11" x="379.1" y="61.3" transform="matrix(4.135814e-03 1 -1 4.135814e-03 546.4861 -243.6299)" class="st7" width="32.9" height="182.5"/>
				
					<rect id="rect11-2" x="163" y="245.1" transform="matrix(4.135714e-03 1 -1 4.135714e-03 514.8649 6.2082)" class="st7" width="182.5" height="32.9"/>
				
					<rect id="rect11-1" x="128.8" y="29.1" transform="matrix(4.135847e-03 1 -1 4.135847e-03 265.0276 -25.4126)" class="st7" width="32.9" height="182.5"/>
				
					<rect id="rect11-6" x="195.3" y="-5.1" transform="matrix(4.135714e-03 1 -1 4.135714e-03 296.6483 -275.2498)" class="st7" width="182.5" height="32.9"/>
			</g>
			<path id="path10" class="st11" d="M270.4,142.4l0.7,210.4"/>
			<path id="path10-7" class="st11" d="M276.4,136.5l210.4-0.7"/>
			<path id="path10-7-9" class="st11" d="M54.1,137.2l210.4-0.7"/>
			<path id="path10-7-0" class="st11" d="M269.7-79.9l0.7,210.4"/>
		</g>
	</g>
</g>
</svg>
