<?xml version="1.0" encoding="utf-8"?>
<!-- Generator: Adobe Illustrator 27.5.0, SVG Export Plug-In . SVG Version: 6.00 Build 0)  -->
<svg version="1.1"
	 id="svg1" xmlns:sodipodi="http://sodipodi.sourceforge.net/DTD/sodipodi-0.dtd" xmlns:svg="http://www.w3.org/2000/svg" xmlns:inkscape="http://www.inkscape.org/namespaces/inkscape" inkscape:export-filename="imc2025logo.png"
	 xmlns="http://www.w3.org/2000/svg" xmlns:xlink="http://www.w3.org/1999/xlink" x="0px" y="0px" viewBox="0 0 472.4 468.2"
	 style="enable-background:new 0 0 472.4 468.2;" xml:space="preserve">
<style type="text/css">
	.st0{fill:#F9C310;}
	.st1{fill:none;stroke:#000000;stroke-width:3.4016;stroke-miterlimit:11.3386;}
	.st2{fill:#F9C310;stroke:#000000;stroke-width:3.4016;stroke-miterlimit:11.3386;}
	.st3{stroke:#000000;stroke-width:2.8346;stroke-miterlimit:11.3386;}
	.st4{fill:#FFFFFF;stroke:#000000;stroke-width:3.4016;stroke-miterlimit:11.3387;}
	.st5{fill:none;stroke:#000000;stroke-width:3.4016;stroke-linecap:square;stroke-miterlimit:11.3386;}
</style>
<sodipodi:namedview  bordercolor="#999999" borderopacity="1" guidecolor="#001cf2" guideopacity="0.6" id="namedview1" inkscape:current-layer="layer1" inkscape:cx="224.82143" inkscape:cy="435.87827" inkscape:deskcolor="#d1d1d1" inkscape:document-units="mm" inkscape:export-bgcolor="#ffffff00" inkscape:lockguides="false" inkscape:pagecheckerboard="0" inkscape:pageopacity="0" inkscape:showpageshadow="0" inkscape:window-height="916" inkscape:window-maximized="1" inkscape:window-width="1512" inkscape:window-x="0" inkscape:window-y="38" inkscape:zoom="0.32692614" pagecolor="#ffffff" showgrid="true" showguides="true">
	
		<inkscape:grid  color="#0099e5" dotted="false" empcolor="#0099e5" empopacity="0.30196078" empspacing="5" enabled="false" gridanglex="30" gridanglez="30" id="grid8" opacity="0.14901961" originx="-20.405842" originy="-65.203251" spacingx="0.26458333" spacingy="0.26458334" units="px" visible="true">
		</inkscape:grid>
</sodipodi:namedview>
<defs>
	
		<inkscape:path-effect  center_point="96.572919,132.48902" discard_orig_path="true" effect="mirror_symmetry" end_point="96.572919,139.29217" fuse_paths="false" id="path-effect186" is_visible="false" link_styles="false" lpesatellites="" lpeversion="1.2" mode="X" oposite_fuse="false" split_items="false" split_open="false" start_point="96.572919,125.68588">
		</inkscape:path-effect>
</defs>
<g id="layer1" transform="translate(-20.405842,-65.203247)" inkscape:groupmode="layer" inkscape:label="Layer 1">
	<g id="g22" inkscape:label="meteor">
		<path id="path15-9" inkscape:label="path15" sodipodi:nodetypes="ccccc" class="st0" d="M151.1,81.6l-2,3.2
			c0,0,257.5,165.9,296,391.9l12.6-3.1C418.8,245,151.1,81.6,151.1,81.6z"/>
		<path id="path16" sodipodi:nodetypes="ssszss" class="st0" d="M463.7,480.4c1.7,7.5-1.3,14.5-6.7,15.6
			c-5.3,1.1-11.1-4.1-12.6-11.6c-1.7-7.5-6.4-47.5-1.1-48.6C448.6,434.6,461.9,472.9,463.7,480.4L463.7,480.4z"/>
	</g>
	<g id="g1" inkscape:label="windmill">
		<path id="path179" inkscape:label="path179" sodipodi:nodetypes="cccc" class="st1" d="M334.1,284.8h-60.6 M184.6,284.8h-60.5"/>
		<path id="path181-8" inkscape:label="path182" sodipodi:nodetypes="cc" class="st1" d="M128.2,275.2l52.3,90.5"/>
		<path id="path181" sodipodi:nodetypes="cc" class="st1" d="M330.9,275.2l-51.8,90.5"/>
		<path id="path2" class="st2" d="M89.6,439.1v26.5h279.9v-26.5H89.6z"/>
		<path id="rect2" sodipodi:nodetypes="ccccc" class="st2" d="M169.7,465.6h119.8l3.6,51.3H165.9L169.7,465.6z"/>
		<path id="rect8" sodipodi:nodetypes="ccccc" class="st2" d="M186,292.2h87.2l11.9,146.9h-111L186,292.2z"/>
		<path id="path8" sodipodi:nodetypes="cscsc" class="st2" d="M277.8,292.2c-8.9-0.3-85.6,0-96,0c-0.1,0-0.3,0-0.4,0
			c16.9-26.2,21.6-51.4,48.2-51.4S261,266.9,277.8,292.2z"/>
		<path id="path8-4" inkscape:label="path9" sodipodi:nodetypes="ccsc" class="st2" d="M254.1,292.2c-4.5-0.3-44.5,0-49,0
			c0-30,10.9-51.4,24.5-51.4C243.2,241,254.1,262.3,254.1,292.2L254.1,292.2z"/>
		<rect id="rect23" x="247.2" y="314.5" class="st3" width="5.5" height="18.6"/>
		<rect id="rect23-1" x="241.2" y="372.4" inkscape:label="rect24" class="st3" width="5.5" height="18.6">
		</rect>
		<g id="g11" transform="rotate(30.236814,-30.777045,121.28595)" inkscape:label="wieken">
			
				<ellipse id="path9" transform="matrix(0.5036 -0.864 0.864 0.5036 32.068 293.5763)" class="st1" cx="271.5" cy="118.9" rx="5.2" ry="5.2"/>
			<g id="g2" inkscape:label="zeilen">
				
					<rect id="rect11" x="365.9" y="53.6" inkscape:transform-center-x="-28.774649" inkscape:transform-center-y="3.8233105" transform="matrix(4.138411e-03 1 -1 4.138411e-03 511.5292 -247.9236)" class="st4" width="28.6" height="158.5">
				</rect>
				
					<rect id="rect11-2" x="178.3" y="213.2" inkscape:label="rect12" inkscape:transform-center-x="3.8233027" inkscape:transform-center-y="28.774652" transform="matrix(4.138311e-03 1 -1 4.138311e-03 483.9651 -30.9828)" class="st4" width="158.5" height="28.6">
				</rect>
				
					<rect id="rect11-1" x="148.6" y="25.7" inkscape:label="rect13" inkscape:transform-center-x="28.774649" inkscape:transform-center-y="-3.8233059" transform="matrix(4.138445e-03 1 -1 4.138445e-03 267.1591 -58.4152)" class="st4" width="28.6" height="158.5">
				</rect>
				
					<rect id="rect11-6" x="206.3" y="-4.2" inkscape:label="rect14" inkscape:transform-center-x="-3.8233092" inkscape:transform-center-y="-28.774649" transform="matrix(4.138311e-03 1 -1 4.138311e-03 294.4579 -275.3531)" class="st4" width="158.5" height="28.6">
				</rect>
			</g>
			<path id="path10" sodipodi:nodetypes="cc" class="st5" d="M271.5,123.9l0.7,182.7"/>
			<path id="path10-7" inkscape:label="path11" sodipodi:nodetypes="cc" class="st5" d="M276.7,118.9l182.7-0.7"/>
			<path id="path10-7-9" inkscape:label="path12" sodipodi:nodetypes="cc" class="st5" d="M83.6,119.4l182.7-0.7"/>
			<path id="path10-7-0" inkscape:label="path13" sodipodi:nodetypes="cc" class="st5" d="M270.8-69l0.7,182.7"/>
		</g>
	</g>
	<path id="path1" class="st1" d="M46.4,517h420.5"/>
</g>
</svg>
