<?xml version="1.0" encoding="utf-8"?>
<!-- Generator: Adobe Illustrator 27.5.0, SVG Export Plug-In . SVG Version: 6.00 Build 0)  -->
<svg version="1.1"
	 id="svg1" xmlns:inkscape="http://www.inkscape.org/namespaces/inkscape" xmlns:sodipodi="http://sodipodi.sourceforge.net/DTD/sodipodi-0.dtd" xmlns:svg="http://www.w3.org/2000/svg" inkscape:export-filename="imc2025logo.png" inkscape:export-xdpi="300"
	 xmlns="http://www.w3.org/2000/svg" xmlns:xlink="http://www.w3.org/1999/xlink" x="0px" y="0px" viewBox="0 0 472.4 468.2"
	 style="enable-background:new 0 0 472.4 468.2;" xml:space="preserve">
<style type="text/css">
	.st0{fill:#F9C310;}
	.st1{fill:none;stroke:#000000;stroke-width:3.4016;stroke-miterlimit:11.3386;}
	.st2{fill:#F9C310;stroke:#000000;stroke-width:3.4016;stroke-miterlimit:11.3386;}
	.st3{stroke:#000000;stroke-width:2.8346;stroke-miterlimit:11.3386;}
	.st4{fill:#FFFFFF;stroke:#000000;stroke-width:3.4016;stroke-miterlimit:11.3386;}
	.st5{fill:none;stroke:#000000;stroke-width:3.4016;stroke-linecap:square;stroke-miterlimit:11.3386;}
</style>
<sodipodi:namedview  bordercolor="#999999" borderopacity="1" guidecolor="#001cf2" guideopacity="0.6" id="namedview1" inkscape:current-layer="layer1" inkscape:cx="224.82143" inkscape:cy="435.87827" inkscape:deskcolor="#d1d1d1" inkscape:document-units="mm" inkscape:export-bgcolor="#ffffff00" inkscape:lockguides="false" inkscape:pagecheckerboard="0" inkscape:pageopacity="0" inkscape:showpageshadow="0" inkscape:window-height="916" inkscape:window-maximized="1" inkscape:window-width="1512" inkscape:window-x="0" inkscape:window-y="38" inkscape:zoom="0.32692614" pagecolor="#ffffff" showgrid="true" showguides="true">
	
		<inkscape:grid  color="#0099e5" dotted="false" empcolor="#0099e5" empopacity="0.30196078" empspacing="5" enabled="false" gridanglex="30" gridanglez="30" id="grid8" opacity="0.14901961" originx="-20.405842" originy="-65.203251" spacingx="0.26458333" spacingy="0.26458334" units="px" visible="true">
		</inkscape:grid>
</sodipodi:namedview>
<defs>
	
		<inkscape:path-effect  center_point="96.572919,132.48902" discard_orig_path="true" effect="mirror_symmetry" end_point="96.572919,139.29217" fuse_paths="false" id="path-effect186" is_visible="false" link_styles="false" lpesatellites="" lpeversion="1.2" mode="X" oposite_fuse="false" split_items="false" split_open="false" start_point="96.572919,125.68588">
		</inkscape:path-effect>
</defs>
<g id="layer1" transform="translate(-20.405842,-65.203247)" inkscape:groupmode="layer" inkscape:label="Layer 1">
	<g id="g22" inkscape:label="meteor">
		<path id="path15-9" inkscape:label="path15" sodipodi:nodetypes="ccccc" class="st0" d="M177.4,117l-1.5,2.4
			c0,0,193.4,124.6,222.3,294.3l9.5-2.3C378.4,239.7,177.4,117,177.4,117z"/>
		<path id="path16" sodipodi:nodetypes="ssszss" class="st0" d="M412.1,416.5c1.3,5.6-1,10.9-5,11.7c-4,0.8-8.3-3.1-9.5-8.7
			c-1.3-5.6-4.8-35.7-0.8-36.5C400.8,382.1,410.8,410.9,412.1,416.5L412.1,416.5z"/>
	</g>
	<g id="g1" inkscape:label="windmill">
		<path id="path179" inkscape:label="path179" sodipodi:nodetypes="cccc" class="st1" d="M314.8,269.6h-45.5 M202.5,269.6h-45.4"/>
		<path id="path181-8" inkscape:label="path182" sodipodi:nodetypes="cc" class="st1" d="M160.2,262.4l39.3,68"/>
		<path id="path181" sodipodi:nodetypes="cc" class="st1" d="M312.4,262.4l-38.9,68"/>
		<path id="path2" class="st2" d="M131.2,385.5v19.9h210.2v-19.9H131.2z"/>
		<path id="rect2" sodipodi:nodetypes="ccccc" class="st2" d="M191.3,405.4h90l2.7,38.5h-95.5L191.3,405.4z"/>
		<path id="rect8" sodipodi:nodetypes="ccccc" class="st2" d="M203.6,275.2h65.5l8.9,110.3h-83.4L203.6,275.2z"/>
		<path id="path8" sodipodi:nodetypes="cscsc" class="st2" d="M272.5,275.2c-6.7-0.2-64.3,0-72.1,0c-0.1,0-0.2,0-0.3,0
			c12.7-19.7,16.2-38.6,36.2-38.6S259.9,256.2,272.5,275.2z"/>
		<path id="path8-4" inkscape:label="path9" sodipodi:nodetypes="ccsc" class="st2" d="M254.7,275.2c-3.4-0.2-33.4,0-36.8,0
			c0-22.5,8.2-38.6,18.4-38.6C246.5,236.7,254.7,252.7,254.7,275.2L254.7,275.2z"/>
		<rect id="rect23" x="249.5" y="291.9" class="st3" width="4.1" height="14"/>
		<rect id="rect23-1" x="245" y="335.4" inkscape:label="rect24" class="st3" width="4.1" height="14">
		</rect>
		<g id="g11" transform="rotate(30.236814,-30.777045,121.28595)" inkscape:label="wieken">
			<circle id="path9" class="st1" cx="270.9" cy="105.5" r="3.9"/>
			<g id="g2" inkscape:label="zeilen">
				
					<rect id="rect11" x="341.8" y="56.4" inkscape:transform-center-x="-28.774649" inkscape:transform-center-y="3.8233105" transform="matrix(4.135814e-03 1 -1 4.135814e-03 467.0112 -237.03)" class="st4" width="21.5" height="119">
				</rect>
				
					<rect id="rect11-2" x="200.9" y="176.3" inkscape:label="rect12" inkscape:transform-center-x="3.8233027" inkscape:transform-center-y="28.774652" transform="matrix(4.135714e-03 1 -1 4.135714e-03 446.3902 -74.1042)" class="st4" width="119" height="21.5">
				</rect>
				
					<rect id="rect11-1" x="178.6" y="35.4" inkscape:label="rect13" inkscape:transform-center-x="28.774649" inkscape:transform-center-y="-3.8233059" transform="matrix(4.135847e-03 1 -1 4.135847e-03 283.4649 -94.7249)" class="st4" width="21.5" height="119">
				</rect>
				
					<rect id="rect11-6" x="221.9" y="13.1" inkscape:label="rect14" inkscape:transform-center-x="-3.8233092" inkscape:transform-center-y="-28.774649" transform="matrix(4.135714e-03 1 -1 4.135714e-03 304.0856 -257.6501)" class="st4" width="119" height="21.5">
				</rect>
			</g>
			<path id="path10" sodipodi:nodetypes="cc" class="st5" d="M270.9,109.3l0.5,137.2"/>
			<path id="path10-7" inkscape:label="path11" sodipodi:nodetypes="cc" class="st5" d="M274.8,105.5L412,105"/>
			<path id="path10-7-9" inkscape:label="path12" sodipodi:nodetypes="cc" class="st5" d="M129.8,105.9l137.2-0.5"/>
			<path id="path10-7-0" inkscape:label="path13" sodipodi:nodetypes="cc" class="st5" d="M270.4-35.6l0.5,137.2"/>
		</g>
	</g>
	<path id="path1" class="st1" d="M98.7,444h315.8"/>
</g>
</svg>
