<svg xmlns="http://www.w3.org/2000/svg" xml:space="preserve" id="Calque_1" x="0" y="0" style="enable-background:new 0 0 512 512" version="1.1" viewBox="0 0 512 512"><style>.st1{fill:#fff}.st3{fill:#f9c931;stroke:#000;stroke-width:2;stroke-miterlimit:10}</style><circle cx="143.1" cy="116.9" r="71.5" class="st1"/><g id="g22"><path d="M460 402.5c-4.4 0-9.3-3.8-11.8-9.1-1.8-3.8-6.4-16.1-9.7-27.5 0-.1 0-.1-.1-.2-52.8-109.3-156.9-189.4-234.9-237.3C124.3 79.8 55.2 53.5 46.3 50.2l.7-2c8.8 3 79.4 27.9 160.5 75.3 50.6 29.6 95.4 62 133 96.3 47 42.9 82.9 89 106.8 137 0 .1.1.1.1.2 8 10.8 16.3 24.6 18.2 28.5 1.9 4.1 2.3 8.5 1.1 11.9-.8 2.1-2.1 3.6-3.9 4.4-.8.5-1.8.7-2.8.7z" style="fill:#f9c931"/><path d="M47.7 49.5c11.9 4.1 80.8 28.9 159.5 74.9 50.6 29.5 95.3 61.9 132.8 96.2 46.9 42.8 82.8 88.8 106.6 136.7.1.1.1.2.2.3 8 10.7 16.2 24.5 18.1 28.3 1.8 3.8 2.2 8 1 11.1-.5 1.3-1.4 3-3.4 3.9-.8.3-1.6.5-2.5.5-4 0-8.5-3.5-10.9-8.6-1.8-3.8-6.3-16.1-9.6-27.3 0-.1-.1-.2-.1-.3-52.9-109.5-157.1-189.7-235.3-237.7-77-47.3-144.5-73.4-156.5-77.9l.1-.1M46.5 47 45 50.8s290.6 104.1 392.6 315.3c3.3 11.5 7.9 23.8 9.7 27.6 2.8 6 8 9.7 12.7 9.7 1.1 0 2.3-.2 3.3-.7 5.3-2.4 6.8-10.3 3.3-17.7-2-4.2-10.4-18.1-18.3-28.7C343.4 145.5 46.5 47 46.5 47z"/><g id="path16-9"><path d="M458.4 396c-2.1 0-4.3-1.8-5.4-4.3-2.2-4.5-7.6-21.1-6.7-23.7 2.6 1 12.3 15.7 14.5 20.3.9 1.9 1.1 4 .6 5.6-.2.6-.7 1.5-1.7 1.9-.5.1-.9.2-1.3.2z" class="st1"/><path d="M447.3 370.1c3.6 3.8 10.9 15 12.6 18.6.8 1.7 1 3.5.5 4.8-.2.7-.6 1.1-1.2 1.3-.3.1-.5.2-.8.2-1.4 0-3.4-1.3-4.5-3.7-2-4-6-16.1-6.6-21.2m-1.2-3.2c-.1 0-.2 0-.3.1-2.7 1.2 4.4 21.4 6.2 25.2 1.4 3 4 4.8 6.4 4.8.6 0 1.1-.1 1.6-.3 2.7-1.2 3.4-5.1 1.6-8.8-1.7-3.6-12.5-21-15.5-21z"/></g></g><path d="M454.5 504.5c-3.7.6-6.7 1.5-9.8 1.5-64.6.4-129.1.7-193.7.9-39.5.1-79.1.1-118.6-.1-13.2-.1-26.5-.8-39.7-1.4-1.7-.1-3.3-.7-5-1.1v-1c1.1-.5 2.2-1.3 3.3-1.4 5.9-.6 11.7-1.3 17.6-1.5 7.1-.2 14.3-.1 21.8-.1v-6.4c0-4 .7-4.8 4.8-4.8 7.9 0 15.9.1 23.8.1 9.4 0 18.8 0 28.2-.1 1.4 0 2.8-.7 4.2-1 0-.4 0-.9-.1-1.3-1.6-.2-3.3-.6-4.9-.6h-45.3c.2-.7.2-1 .4-1.2 16.8-21.5 31.4-44.5 44.8-68.2 2.3-4 4.7-7.9 6.9-12 1-1.8 2.3-2.5 4.3-2.5 25.3.1 50.6.2 75.8.1 23.1 0 46.1-.1 69.2-.3 4 0 6.4 1.2 8.4 4.9 12.3 23.1 26 45.3 41.4 66.4 3 4.1 6.3 8.1 9.7 12.4-1.4.1-2.5.3-3.7.3h-43.5c-1.2 0-2.3.4-3.5.7 0 .4-.1.8-.1 1.2 1.4.4 2.9 1 4.3 1.1 5.8.1 11.6.1 17.4.1 10.8 0 21.7-.2 32.5-.2 5.8 0 5.8.1 5.8 5.8 0 5 0 4.9 5.1 5.1 10.7.4 21.5 1 32.2 1.5 2.1.2 4.2.3 6 3.1zm-113.3-10.1c.2-.2.4-.5.6-.7-3.7-7.2-6.8-14.7-11-21.5-21.3-33.9-67.2-45.3-102.2-18.9-13.9 10.4-21.6 24.9-27.5 41.2 46.8-.1 93.5-.1 140.1-.1zm-143-19.6c.4.2.7.5 1.1.7.5-.5 1-1 1.4-1.6 4.5-7.3 10-13.8 16.2-19.8 14.6-14.1 32.2-21.4 52.2-22.4 16.5-.8 31.5 4.3 45.3 13.1 10.6 6.8 18.8 16 26.2 26 .7 1 1.7 1.9 2.5 2.8.4-.8.3-1.2.1-1.6-5.3-10.1-12.4-18.8-21.4-25.8-7.1-5.5-14.7-9.9-22.9-13.4-1.2-.5-2.3-1.3-3.5-2l.3-.6c3.3 1.1 6.6 2.1 9.9 3.3 8.4 3.3 15.9 8.2 22.9 13.9 1.2 1 2.6 1.8 3.9 2.7.2-.2.3-.4.5-.7-.5-.7-.8-1.5-1.4-2-3.4-3-6.6-6.3-10.3-8.7-8.4-5.5-17.2-10.2-27.5-11.1-5.6-.5-11.2-.9-16.9-.9-10.6-.1-21.2-.4-31.6 1.6-13.6 2.6-24.9 9.1-34 19.5-.6.7-1 1.6-1.5 2.4.2.2.4.4.5.6 10.9-9.4 22.5-17.4 36.9-20.3-1.4 1-2.9 1.9-4.5 2.6-15.4 6.3-28.1 16-37.6 29.8-2.6 3.8-4.6 7.9-6.8 11.9zm145.4-55H199.5c1.6-1.5 3.4-2.4 4.9-3.5.7-.5 1.4-1.4 1.4-2.2 0-.5-1.1-1.4-1.8-1.5-.7-.1-1.7.3-2.3.8-.8.6-1.4 1.6-2 2.4-.2-.1-.4-.2-.6-.2.6-2.2 1.1-4.5 1.7-6.7-.4-.1-.8-.3-1.1-.4-2.9 4.7-5.7 9.4-8.8 14.5h160.4c-3-5.1-5.7-9.6-8.4-14.2-.3.1-.6.2-.9.4.5 2.2 1 4.4 1.5 6.5-1.2-.3-1.8-1.1-2.6-1.6-.9-.6-1.9-1.2-2.9-1.4-.4-.1-1.6 1.1-1.6 1.3.5 1 1.1 2.1 2 2.7 1.5 1.1 3.2 1.9 5.2 3.1zM161 474.6c.3.2.6.4.8.6 1.6-1.8 3.2-3.6 4.9-5.3.4-.4 1.7-.7 2-.5 1.2 1.2 2.2 2.6 3.4 4-5.8 3.4-12.9 3.7-17 9.3 1.1.2 2.2.2 3.1-.1 3.8-1.4 7.8-2.6 11.4-4.4 3.5-1.7 6.3-1.6 8.4 1.9.2.4.6.6.9.9 2.8 2.6 3.7 2.5 5.5-.9 3.3-6.4 6.7-12.7 10-19 2.1-4 4-8 6.2-12.4-1.5-.2-2.6-.4-3.7-.4-4.6-.1-9.3.5-13.8-.3-5-.9-7.4 1.7-9.4 5.3-1.1 1.8-2 3.7-2.9 5.6.3.2.6.4.9.7 1.2-1.1 2.5-2.1 3.6-3.3 3.1-3.6 3.1-3.7 5.9.2.2.3.3.6.6 1.3-4 1.7-7.9 3.3-11.8 4.9-1.1.5-2.4.9-3 1.7-1.9 2.4-3.6 5-5.3 7.6-.4.6-.5 1.7-.7 2.6zm180.8-26.3c.2.5.2.9.3 1.1 3.2 6.2 6.4 12.4 9.6 18.7l6.3 12.6c1.5 3 3.5 3.1 5.8.6.9-1 1.9-2 2.7-3.1 1.1-1.4 2.2-1.7 3.9-.9 3.5 1.6 7.1 3 10.7 4.3 1.7.6 3.5.9 5.2 1.4.1-.3.3-.7.4-1-4.2-4.9-11.1-5.1-16.4-8.4.8-1 1.4-1.7 2-2.4 2.5-2.8 2.4-2.8 5 .1 1.1 1.3 2 3.2 4.9 3-3.6-4.6-4.6-10.6-11-12.2-2.1-.5-4.1-1.6-6.1-2.5-1.6-.7-3.1-1.6-4.6-2.4.3-.5.3-.7.4-.8 3.8-3.5 4.3-5.1 7 .7.6 1.4 1.6 2.6 4 1.9-2-3.1-3.9-6-5.6-9-.9-1.5-2.1-2-3.8-2-6.2.1-12.5 0-18.7.1-.6 0-1.2.1-2 .2zm-162.7-2.1c1 0 1.4.1 1.7 0 3.9-1.2 7.8-2.3 11.6-3.7 2.2-.9 3.8-.9 5.3 1.1.6.7 1.9.8 2.8 1.2.1-1 .4-2.1.1-3-1-3.1-1.1-3.4 2.2-4.1 4.6-.9 6.4-4.3 8.8-8.4h-22c-.6 0-1.5.3-1.8.7-2 3.1-3.8 6.2-5.6 9.4-.1.2.1.6.2 1 3.5-1.1 4.8-4.1 6.9-7 1.6 1.8 2.9 3.2 4.3 4.8-4.7 3-11.3 2.1-14.5 8zm180.4-5.6c.4-.3.7-.6 1.1-.9-1.8-2.8-3.7-5.5-5.2-8.3-.9-1.6-1.9-2.2-3.6-2.2-5.8.1-11.6.1-17.4.1-.9 0-1.7.2-2.8.4 2 4.1 4.2 7.2 8.7 8.1 2.9.6 3.1 1.2 2.1 4.1-.3.8-.5 1.7-.8 2.5l.6.6c1-.6 2.4-.9 2.9-1.8 1.3-2.3 2.9-1.9 4.8-1.2 3.3 1.3 6.7 2.5 10.1 3.6 1.1.3 2.3.1 3.5.1.1-.3.2-.6.3-.8-.9-.6-1.8-1.4-2.8-1.9-2.3-1-4.7-1.9-7.1-2.8-4.5-1.7-4.7-2.6-1.3-6 .3-.3.7-.5 1-.7 1.9 2.4 3.9 4.7 5.9 7.1zm-141.2-23.2c1.3-.3 2.7-.5 3.9-1.1.7-.3 1.3-1.2 1.4-1.9.1-.5-.8-1.2-1.4-1.6-3-1.6-6-1.7-9-.1-1.8 1-1.9 2.5.1 3.3 1.5.8 3.3 1 5 1.4zm52.9 0c1.5-.4 3.2-.6 4.6-1.2 1.6-.8 1.6-2.3.1-3.1-3-1.6-6.1-2.2-9.2-.3-1.8 1.1-1.9 2.4 0 3.4 1.3.6 2.9.7 4.5 1.2zm-35.3 0c1.3-.3 2.6-.4 3.6-.9.7-.4 1.4-1.3 1.6-2.1.1-.5-.9-1.3-1.6-1.7-2.8-1.4-5.7-1.6-8.5.1-.6.4-1.4 1.2-1.4 1.6.1.7.8 1.6 1.5 1.8 1.5.5 3.2.8 4.8 1.2zm88.6 0c1.5-.4 3-.7 4.3-1.4 1.3-.7 1.4-1.8 0-2.8-2.5-1.8-6.9-2.1-9.4-.4-1.6 1.1-1.7 2.4.1 3.3 1.5.6 3.3.9 5 1.3zm-35.2-.1c1.5-.5 3-.8 4.4-1.6.4-.2.6-2 .2-2.4-2.1-2.1-7.5-2.3-10-.5-1.6 1.1-1.6 2.2.2 3 1.5.8 3.3 1.1 5.2 1.5zm17.4-.1c1.4-.3 3-.5 4.4-1.2.5-.2 1-1.9.7-2.4-1.7-2.5-8.5-2.7-10.4-.4-1.1 1.3-.9 2.4.7 2.9 1.3.6 2.8.8 4.6 1.1zm-52.6.1c1.2-.4 2.7-.8 4.1-1.6.4-.2.6-1.8.2-2.2-2-2.3-8-2.3-10.2-.2-1.3 1.3-1.1 2.5.6 3 1.6.4 3.2.6 5.3 1zm-4.4-9.6c-.1-.2-.1-.5-.2-.7h-10c-.1.2-.2.4-.2.6 1.5 1.4 2.9 2.8 4.4 4.1.4.3 1.4.2 1.7-.1 1.5-1.2 2.9-2.6 4.3-3.9zm25.5-.8c-.2.2-.3.5-.5.7 1.6 1.4 3.1 2.8 4.7 4 .3.2 1.1.2 1.4 0 1.5-1.3 2.9-2.7 4.3-4.1l-.3-.6h-9.6zm-53.4-.1c-.2.2-.4.5-.6.7l4.8 4.2c.2.2.9.2 1.1 0 1.5-1.4 3-2.8 4.4-4.2-.1-.2-.3-.5-.4-.7h-9.3zm98.5.9c-.1-.3-.2-.5-.3-.8h-9.4c-.1.2-.2.5-.4.7 1.3 1.3 2.5 2.7 3.9 3.8.4.3 1.4.3 1.8 0 1.6-1.1 3-2.4 4.4-3.7zm-62.7-.7c-.1.2-.3.5-.4.7 1.6 1.3 3.1 2.7 4.8 3.9.3.2 1.1 0 1.4-.2 1.4-1.2 2.7-2.5 4.1-3.7-.1-.2-.2-.5-.3-.7h-9.6zm79.5.1c-3.3-.6-6.5-.9-10.1.2 6 5.6 6.2 6.6 10.1-.2zM205 407c-.1.3-.2.5-.3.8 1.3 1.2 2.5 2.5 3.9 3.6.4.3 1.4.5 1.8.2 1.5-1.2 2.8-2.6 4.2-3.9-.1-.2-.2-.4-.3-.7H205zm87.6 0c-.1.2-.1.5-.2.7 1.5 1.2 2.9 2.6 4.5 3.7.4.3 1.4.3 1.8 0 1.4-1.1 2.7-2.5 4.1-3.7-.1-.2-.2-.5-.3-.7h-9.9zM271.1 381h-72.3c-1.3 0-2.9.3-3-1.8 0-1.8.8-2.9 2.7-3.1.8-.1 1.7-.2 2.5-.2 1.9 0 3.8-.1 5.6 0 2 .2 2.9-.7 3.7-2.4 6.6-13.7 11.8-28 16.3-42.5 4.1-13.5 7.6-27.2 11.2-40.9.5-2.1 1.2-3 3.5-3 19.3.1 38.6 0 57.9.1 4.4 0 4.5.2 5.4 4.4 5.9 25.8 13.8 51 24.1 75.4 1.1 2.5 2.2 5 3.5 7.4.4.7 1.5 1.3 2.3 1.4 2.2.2 4.4 0 6.7.1 1 0 2.3-.2 3 .3 1 .7 2.1 1.8 2.2 2.9.2 1.6-1.3 1.9-2.7 1.8h-13.6c-19.6.1-39.3.1-59 .1zm23.3-5.2c0-.7.1-1.1 0-1.4-3.6-14.7-7.2-29.5-11-44.2-.2-.7-1.4-1.5-2.1-1.5-6.9-.1-13.8-.1-20.8 0-.7 0-1.8.9-1.9 1.6-3.5 14.1-6.9 28.3-10.4 42.5-.7 2.9-.6 3 2.4 3h43.8zm1.7-31.8c.6 1.3.9 2.2 1.4 2.9 1.6 2 3 4.2 4.9 5.9 2 1.8 2.3 3.4.8 5.7-.9 1.4-2.1 3.2-.3 5.4 1.9-1.8 3.7-3.5 5.5-5.2 3.5 3.3 6.5 6.9 11 8.6-.1-1.2-.4-2.3-1-3.1-1.3-1.8-2.5-3.8-4.1-5.2-3.1-2.6-4.1-5.3-1.9-9 .4-.6-.2-1.8-.4-2.7-.9.4-2 .6-2.8 1.2-.9.8-1.5 1.9-2.2 2.8-3.7-2.6-5.6-6.9-10.9-7.3zm-61.4 14.5c1.5 1.7 2.7 3.1 3.9 4.3.3.3 1.2.5 1.5.3.4-.2.7-1 .6-1.5-.3-1.2-.6-2.5-1.4-3.5-1.5-2.1-1.1-3.7.6-5.4 1.5-1.4 2.8-3 4-4.7.8-1.1 1.2-2.5 1.8-3.7-.3-.2-.5-.3-.8-.5-.9.5-1.9.8-2.6 1.4-1.6 1.3-3.2 2.6-4.6 4.1-1.4 1.4-2.5 2.1-3.7-.1-.7-1.2-1.6-2.2-2.2-3.1-3.5 2-1.9 3.7-1 5.4 1.8 3.4 1.7 3.2-.9 6-2.1 2.2-3.9 4.6-5.8 7.1-.5.7-.4 1.7-.6 2.6.2.1.5.2.7.3 3.5-2.9 7-5.9 10.5-9zm6.3-20.2c.4.5.9.9 1.2 1.4.8 1.1 1.5 2.8 3 1.8.5-.3.5-2.5 0-3.4-1.4-2.3-.5-3.7 1.2-5.3 1.6-1.5 2.9-3.3 4.4-5-.2-.3-.4-.5-.6-.8-.8.2-1.8.3-2.5.7-1.3.7-2.5 1.5-3.6 2.4-1.7 1.5-2.9 1.3-4.2-.4-.7-1-1.7-1.8-2.5-2.7-1.7 1.7-1.5 3.5-.5 4.9 1.7 2.5 1.1 4.1-1.2 5.6-1 .6-1.9 1.5-2.5 2.5-.8 1.1-1.2 2.4-2.2 4.2 4.6-.6 6.4-4.4 10-5.9zm70.5 6.3c-1.4-3.5-3.1-5.9-5.5-7.7-1.6-1.2-1.7-2.2-.9-3.8.6-1.2.9-2.5 1.1-3.9.1-.5-.4-1.2-.7-1.7-.5.2-1.1.4-1.5.7-1.2 1.2-2.3 2.4-3.4 3.6-3.2-1.6-5.4-4.7-9.2-4.2 1.5 2.2 3 4.2 4.9 6 1.5 1.4 2.2 2.6.8 4.6-.5.7-.2 2-.3 3 .9-.2 2.3-.2 2.7-.8 2-2.5 3.4-1.3 5.1.2 1.2 1.1 2.5 2 3.9 2.9.7.4 1.6.6 3 1.1zm-72.3 24.8c-.2-.3-.3-.5-.5-.8-.6-.1-1.2-.4-1.7-.3-5.2 1.8-10.4 3.5-15.6 5.5-.9.3-1.3 1.9-1.9 2.9 1.1 0 2.3.3 3.3-.1 3.3-1.2 6.5-2.3 9.5.6.2.2.6.4.9.4.7-.1 1.4-.3 2-.4-.2-.6-.1-1.5-.5-1.8-1.8-1.6-.7-2 .7-2.9 1.5-.8 2.6-2 3.8-3.1zm70.4 4.9c-.5.3-1.2.4-1.5.8-.4.5-.6 1.3-.9 1.9.8.1 1.5.4 2.3.4.5 0 1-.3 1.4-.6 2.6-2.5 5.3-1.4 8-.4 1 .4 2.1.6 3.2.9.2-.3.5-.6.7-.9-1-1.1-1.7-2.7-2.9-3.2-4.5-1.9-9.1-3.4-13.6-5-.8-.3-1.7 0-2.6.1-.1.3-.2.7-.3 1 1.8 1.4 3.6 2.9 6.2 5zM298.4 269.1h-22.9c-9.1 0-18.3 0-27.4.1-4 0-4.3-.3-3.6-4.4 1.2-7.2 2.5-14.3 3.4-21.5 1.8-14.4 3.5-28.8 4.9-43.2 1.3-13.5 2.4-27.1 3.3-40.6.8-10.7 1.4-21.5 1.8-32.2.7-15.9 1.1-31.7 1.7-47.6.1-2.1-.2-3.6-2.4-4.8-2.5-1.3-3.5-4.7-2.8-7.4.6-2.4 2.9-4.3 6-4.3 7.3-.1 14.7-.1 22 0 2.2 0 5 2.4 5.6 4.4.7 2.4-.2 5.7-2.7 6.9-3.3 1.5-3.4 3.8-3.3 6.8.7 15.1 1.2 30.2 1.9 45.3.6 12.4 1.2 24.7 2.2 37.1 1.4 17.4 2.9 34.9 4.9 52.3 2 17 4.8 34 7.2 50.9.2.5.2 1.3.2 2.2zm-23.5-17c1.3 2 2.1 3.6 3.2 5 1.3 1.7 1.7 3.2.1 4.9-.6.6-1 1.6-1.3 2.4-.2.5 0 1.3.3 1.5.3.3 1.1.3 1.6.1.7-.3 1.3-.9 1.8-1.4 2.6-2.5 2.5-2.5 5.3-.3 1.2 1 2.2 2.7 4.8 1.7-.9-1.6-1.5-3.3-2.6-4.4-2-1.8-1.9-3.5-.7-5.6.7-1.2.9-2.6 1.3-4-.3-.2-.6-.3-.8-.5-1.2.9-2.5 1.6-3.5 2.7-1.4 1.4-2.3 1.5-3.7 0-1.4-1-2.7-2.7-5.8-2.1zm-20.8-.7c-.1 1.2-.3 1.7-.2 1.9 2.5 4.1 1.9 7.7-1.6 11-.3.3-.3 1.4 0 1.6.5.3 1.4.5 1.8.2 1.2-.6 2.3-1.5 3.3-2.4 1.3-1.1 2.2-1.2 3.4.1 1.2 1.3 2.6 2.5 4.9 1.9-.6-1.2-.9-2.4-1.6-3.2-1.7-2.2-1.7-4 .2-6.1 1-1.1 2.6-2.4 1.2-4.1-.2-.3-2.8 1-3.7 2-1.5 1.6-2.6 1.5-4 0-1-.9-2.1-1.7-3.7-2.9zm21.6-2.6c.3.2.5.4.8.6 1.8-1.3 3.6-2.5 5.5-3.8 1.5 1.8 2.6 4.6 6.2 2.8-.8-1.2-1.3-2.5-2.1-3.3-2-2-2.1-4-1-6.4.5-1.1.2-2.5.2-3.7-1 .8-2.3 1.4-3 2.3-1.1 1.5-1.9 1.3-3 .1-1-1.1-2.2-2-3.9-3.5-.1 1.4-.3 2.2-.2 2.9.3 1 .7 2 1.4 2.7 1.6 1.9 1.3 3.6.3 5.6-.7 1.1-.8 2.5-1.2 3.7zM258 234.4h-.8c0 .7-.4 1.6-.1 2.1 1.8 3.4 2.3 6.6-1.1 9.5-.2.2-.4.6-.5.9-.1.6 0 1.3 0 1.9.7 0 1.6.2 2.1-.1 1.4-.9 2.7-2 4.2-3 .3.3.7.5.9.9.8 1.3 1.7 3.2 3.4 2.2 1.9-1.1.3-2.9-.4-4-1.1-1.8-.9-3.2.2-4.9.9-1.3 1.3-2.8 2-4.2-.3-.3-.6-.5-.9-.8-1.7 1.2-3.3 2.4-4.7 3.4-1.6-1.4-3-2.7-4.3-3.9zm9-1.8c.4-.2.7-.4 1.1-.6-3.4-4.2-2.1-8.4.1-12.6-.3-.1-.6-.3-1-.4-1.5 1-3 1.9-4.6 2.9-1.1-1-2.2-2.1-3.3-3.1-.4.1-.8.2-1.2.2 2.4 4.6 1.1 8.9-.4 13.2 2-.7 3.5-2.1 5-2.1 1.4.1 2.8 1.6 4.3 2.5zm17.2-13.3-.6-.6c-1.4 1.1-2.9 2.2-4.3 3.2-1.3-.9-2.6-1.8-3.8-2.8-.3.2-.5.4-.8.6.4 1.1.5 2.3 1.1 3.2 1.5 2 1.2 3.8.1 5.9-.6 1.1-.5 2.5-.7 3.7.2.3.5.5.7.8 2.8-4.7 5.7-3.9 8.9-.6.1-1.5.1-2.9-.5-3.7-1.7-2.5-1.6-4.9-.6-7.5.2-.7.3-1.4.5-2.2zm-8.8-2.7c.4-.1.9-.1 1.2-.3 1.6-1.5 3.1-2.2 4.9-.3.3.3 1.2.1 1.9.1 0-.7.1-1.5-.2-2.1-1.5-2.4-2.2-4.9-1.1-7.8.3-.9-.1-2-.2-3l-.5-.5c-1.7 5.3-4.4 2.1-6.7 1.2.2 4.3.4 8.4.7 12.7zm-15.1-13.3c-.1.2-.3.3-.4.5.2 1 .1 2.1.6 3 1.1 2.3 1 4.3-.5 6.4-.6.9-.5 2.3-.7 3.5.3.1.5.2.8.2.7-.5 1.4-1.3 2.3-1.6.9-.3 2-.2 2.9-.1.8.1 1.6.5 2.4.8 0-1 .3-2.1-.1-2.9-1.1-2.1-.8-4.1-.2-6.2.3-1.1.3-2.3.5-3.5-.2-.3-.4-.5-.6-.8-2.3 4.4-4.6 3-7 .7zm14.5-2.6c2.4.1 4.8.3 7.6.5-1.9-3.7-3.7-7.7-.9-12.3-2.8.3-4.9.4-6.7.6v11.2zm-.6-27.7v12.3c1.2-.1 2.2-.2 3.2-.2s2 .1 3.4.2c-.3-1.2-.6-2.1-.7-3.1-.3-1.6-.8-3.3-.7-4.9.5-4.6.5-4.7-4.2-4.5-.3 0-.6.1-1 .2zm-6.6 27.3v-12.1c-2.1 2-4.1 1.8-6.2 0 .4 2.5 1.4 4.6 1.2 6.7-.1 2.1-1.4 4.1-2.3 6.4 2.7-.5 5-.8 7.3-1zm.1-15.7c0-3.5.1-6.7 0-9.9-.1-2.7-2.3-1.7-3.7-1.8-1.7-.2-1.7 1.2-1.3 2.3.9 2.8.5 5.5-.7 8.2-.3.5-.2 1.2-.4 2.2 2.2-.5 4-.7 6.1-1zm11.4-23.2c-.4-3.8-.7-7.3-1.1-11h-3.6v11h4.7zm-14.8-11.1c-.3 3.9-.5 7.5-.8 11h4.7c-.2-3.8-.5-7.3-.7-10.9-.8-.1-1.4-.2-2-.2-.4 0-.9.1-1.2.1zm13.5-4.3c-.1-2.9-.2-5.3-.3-7.7 0-1 1.1-2.4-.8-2.6-1.4-.1-3 0-2.8 2.3.1 1.7-.1 3.4-.1 5.1-.1 3.5 1 4.2 4 2.9zm-9.4-4.6h-.2v-3.8c-.1-1.5-1-2.1-2.4-2-1.8.2-1.1 1.4-1.1 2.5.1 1.9-.1 3.8-.1 5.7 0 .8-.3 2 .1 2.2.7.4 1.8.6 2.6.3.5-.2 1-1.2 1.1-1.9.2-.9 0-2 0-3zm9-9.9c-.2-3.1-.3-5.9-.6-8.7-.1-.6-.8-1.1-1.3-1.7-.5.5-1.5.9-1.6 1.4-.3 1.9-.4 3.9-.4 5.8-.1 3.5.5 4 3.9 3.2zM266 120.2c-.3 3.7-.5 6.4-.9 9.1-.1 1.1-.8 2.3 1 2.5 1.5.2 2.5-.4 2.4-2.1-.1-2.3 0-4.6-.3-6.9-.1-.8-1.2-1.4-2.2-2.6zm.9-14.3c-.4.2-.7.4-1.1.6 0 2.9-.1 5.7.1 8.6 0 .6.7 1.2 1.1 1.8.6-.6 1.5-1.2 1.6-1.8.2-2.3.2-4.6 0-6.9-.1-.8-1.1-1.6-1.7-2.3zm9.6 6c-.1-1.4 0-2.7-.1-4.1-.1-.5-.8-.9-1.4-1.2-.2-.1-1 .5-1 .8-.2 2.7-.3 5.4-.2 8.2 0 .5 1.1.9 1.7 1.4.3-.6.9-1.1 1-1.7.1-1.2 0-2.3 0-3.4zM267 91.4c-.3.2-.5.4-.8.6 0 2.8-.1 5.6 0 8.4 0 .6.6 1.2.9 1.7.5-.5 1.5-1 1.5-1.6.2-2.4.2-4.8 0-7.1 0-.8-1-1.4-1.6-2zm10 73c-2 0-3.2.1-3.1 2 .1 2.2 1.4 3 3.2 3.2 1.6.2 2.3-.6 2.4-2.2 0-2.2-1.1-3.1-2.5-3zm-3.3-66.9c0 .7 0 2.1.2 3.6.1.4.9 1.1 1.4 1 .4 0 1.1-.8 1.1-1.3-.1-2.6-.4-5.3-.7-7.9-.1-.4-.7-.8-1.1-1.1-.3.5-.7.9-.8 1.4 0 1.2 0 2.4-.1 4.3zm-8.9 72.5h1.2c.7-1 1.9-2 2-3 .2-2.2-1.8-2.3-3.4-2.4-2-.1-2 1.6-1.8 2.6.3 1 1.3 1.8 2 2.8zm2.1-91.8c-.2 3.2-.4 5.8-.5 8.4 0 .4.6 1.2.9 1.2.4 0 1.2-.6 1.3-.9.1-2.5 0-5-.1-7.5 0-.3-.7-.6-1.6-1.2zm8.4.3c-.5 0-1 .1-1.5.1v8.2c0 .4.6.8 1 1.3.3-.3 1-.6 1-.9-.2-2.9-.4-5.8-.5-8.7zM271.6 398.8h-73c-5.2 0-7.3-1.3-8.4-5-1.2-4 .7-7.7 4.8-8.7 1.5-.4 3.2-.5 4.8-.5h142.1c2.2 0 4.5.1 6.6.7 3.4.9 5 3.5 4.8 7-.2 3.6-2.2 5.8-5.8 6.4-1.6.2-3.2.3-4.8.3-23.8-.1-47.5-.1-71.1-.2zM271.1 284.1h-32.5c-2.4 0-4.3-.8-5.3-3.2-1-2.4-.9-4.8.9-6.7 1-1 2.6-1.9 3.9-1.9 4.1-.2 8.2-.1 12.3-.1l48.4-.3c1.8 0 3.6.1 5.4.2 3.6.4 5.6 2.6 5.6 6s-2.2 5.7-5.8 5.8c-5.8.2-11.6.1-17.4.1-5.3 0-10.4 0-15.5.1 0-.1 0 0 0 0zM260 46.9c1.6-3.2 3.7-5 6.4-5.9 1.8-.6 2.4-1.5 2.4-3.3V13.4c0-1.4-.8-2.8-.8-4.2 0-1.4 0-3.3.8-4.1 1-.9 3-1.1 4.4-.8 1.8.4 2.4 2.2 2 4-2.3 9.8-.5 19.7-1.1 29.5-.1 1.7.3 2.8 2.2 3.4 2.7.9 4.9 2.6 6.4 5.8-7.9-.1-15.1-.1-22.7-.1zM271.3 50.3c3.2 0 6.5-.1 9.7 0 3.2.1 5.2 1.9 5.2 4.7 0 2.8-2 4.9-5.1 4.9-6.6.1-13.3.1-19.9 0-3.3-.1-5.1-2.2-5.1-5.2.1-2.7 2-4.4 5.2-4.5 3.4-.1 6.7 0 10 .1 0-.1 0-.1 0 0z" class="st3"/><path d="M182.1 451.5h13.1c-1.3 2.9-2.5 5.6-3.8 8.2-.2.3-1.6.4-1.9.1-2.5-2.6-4.8-5.3-7.4-8.3zM181.8 478.6c-2.8-3.4-5.2-6.1-8-9.4h12.3c-1.4 3.2-2.7 6-4.3 9.4zM173.6 465.1l5.4-2.4c.9-.4 1.9-.8 2.8-1.1 3.1-1.2 5.6.6 5.9 4.2h-13.9c-.1-.3-.1-.5-.2-.7zM347.1 451.6h13.4c-2.8 3.3-5.2 6.2-8.2 9.7-1.9-3.6-3.5-6.5-5.2-9.7zM369 469.1c-2.8 3.3-5.1 6.1-7.9 9.4-1.7-3.4-3.2-6.2-4.8-9.4H369zM369.5 465.7H355c.7-3.9 3.7-5.6 6.9-4.1 2.6 1.2 5.2 2.2 7.8 3.3-.1.3-.1.6-.2.8zM204.5 433.3c-2.3.9-4.5 2.2-6.9 2.6-2.1.4-2.6-1.6-3.4-3.5h9.9c.2.3.3.6.4.9zM338.3 432.4h9.9c-1.1 3.5-2.5 4.3-5.4 3.1-1.6-.7-3.3-1.4-4.9-2.1.2-.4.3-.7.4-1z" class="st3"/></svg>